<?xml version="1.0" encoding="UTF-8"?>
<svg width="150px" height="57px" viewBox="0 0 150 57" version="1.1" xmlns="http://www.w3.org/2000/svg" xmlns:xlink="http://www.w3.org/1999/xlink">
    <g id="Page-1" stroke="none" stroke-width="1" fill="none" fill-rule="evenodd">
        <g id="With-Social" transform="translate(-410.000000, -475.000000)" fill-rule="nonzero">
            <g id="Apps" transform="translate(0.000000, 360.000000)">
                <g transform="translate(60.000000, 40.000000)" id="Professional">
                    <g>
                        <g id="Bisk" transform="translate(300.000000, 41.000000)">
                            <g id="bisk-logo" transform="translate(50.000000, 34.166667)">
                                <path d="M51.1764706,2.31440505 C51.223262,1.55362737 51.8315508,0.92710457 52.6737968,0.882352941 L55.855615,0.882352941 C56.6510695,0.92710457 57.3529412,1.55362737 57.3529412,2.31440505 L57.3529412,52.3914773 C57.3061497,53.152255 56.6510695,53.8235294 55.855615,53.8235294 L52.6737968,53.8235294 C51.8783422,53.7787778 51.223262,53.152255 51.1764706,52.3914773 L51.1764706,2.31440505 L51.1764706,2.31440505 Z" id="Shape" fill="#000000"></path>
                                <path d="M69.241263,45.9781347 C69.6489307,45.5282508 70.011302,44.9883901 70.3736733,44.5385062 C71.1437124,43.5487616 71.9590478,42.9189241 73.0461617,43.8636803 C73.5897187,44.3135642 79.1611775,49.6671827 86.0009359,49.6671827 C92.2065446,49.6671827 96.2379254,45.7981811 96.2379254,41.2993421 C96.2379254,36.0357005 91.6629876,32.9315015 82.830187,29.287442 C74.4050541,25.6433824 69.3318558,22.2242647 69.3318558,13.5415054 C69.3318558,8.36784056 73.4538294,0 85.6385646,0 C90.2587988,0.0449883901 94.8337366,1.39464009 98.7292281,3.86900155 C99.1821922,4.0939435 100.088121,4.9937113 99.1821922,6.47832817 C98.8651173,6.92821207 98.5480425,7.46807276 98.276264,7.91795666 C97.5968178,8.99767802 96.8267787,9.26760836 95.6037756,8.59278251 C95.0602186,8.27786378 90.2587988,5.08368808 85.5932682,5.08368808 C77.4852102,5.08368808 75.0392039,10.2573529 75.0392039,13.4515286 C75.0392039,18.5352167 78.9346955,21.5044505 85.3667862,24.1587655 C95.6943684,28.3426858 102.352941,32.2116873 102.352941,41.0294118 C102.352941,48.9473684 94.7884401,54.7058824 85.8197503,54.7058824 C76.7604676,54.7058824 70.6454518,49.4422407 69.6489307,48.5424729 C69.1053738,48.0026122 68.3353347,47.4177632 69.241263,45.9781347 Z" id="Shape" fill="#000000"></path>
                                <path d="M112.986028,2.67241808 C112.986028,1.68788225 113.793348,0.882352941 114.780072,0.882352941 C114.780072,0.882352941 114.780072,0.882352941 114.824923,0.882352941 L117.022627,0.882352941 C118.009352,0.882352941 118.816672,1.68788225 118.861523,2.67241808 L118.861523,24.1084481 L142.498058,1.64313063 C142.856867,1.24036597 143.39508,0.971856198 143.933293,0.882352941 L147.655935,0.882352941 C149.001469,0.882352941 149.763938,2.40390831 148.552958,3.52269902 L124.602465,25.8537616 L149.719087,51.4964447 C150.212449,52.1677192 150.033044,53.1075034 149.360278,53.5550196 C149.091171,53.7340262 148.777213,53.8235294 148.418404,53.8235294 L144.516358,53.8235294 C144.022996,53.8235294 143.529633,53.6445229 143.170825,53.2865099 L118.816672,27.9123365 L118.816672,51.9887126 C118.816672,52.9732485 118.009352,53.7787778 116.977776,53.8235294 L114.780072,53.8235294 C113.793348,53.8235294 112.986028,53.0627517 112.941176,52.0782159 C112.941176,52.0782159 112.941176,52.0334643 112.941176,52.0334643 L112.986028,2.67241808 L112.986028,2.67241808 Z" id="Shape" fill="#000000"></path>
                                <path d="M29.6632241,26.8830491 C33.2105972,24.8244742 37.117198,20.6178211 37.117198,14.8001094 C37.117198,6.87907116 30.830714,0.882352941 21.5806017,0.882352941 L4.96632241,0.882352941 C4.15806017,0.882352941 3.52941176,1.50887574 3.52941176,2.31440505 L3.52941176,25.9432649 C3.52941176,26.3907812 3.75392905,26.7935458 4.15806017,27.017304 L8.7831163,29.65765 C8.96273013,29.7471533 9.18724742,29.8366566 9.41176471,29.8366566 L21.5806017,29.8366566 C27.5078581,29.8366566 32.4472384,33.7747999 32.4472384,39.1449953 C32.4472384,44.5151907 28.5855411,48.5875889 23.1971262,48.7665954 C22.9726089,48.7665954 22.7929951,48.811347 22.6133812,48.9456019 L15.4737315,52.9732485 C15.2492142,53.1075034 15.2043107,53.3760131 15.2941176,53.5997713 C15.3839246,53.7340262 15.5186349,53.8235294 15.6982488,53.8235294 L22.2541536,53.8235294 C32.0431073,53.8235294 38.8235294,47.6925563 38.8235294,39.2344985 C38.778626,32.2532445 33.7045352,28.5388593 29.6632241,26.8830491 Z M21.5806017,24.6454677 L9.18724742,24.6454677 L9.18724742,6.07354184 L21.5806017,6.07354184 C27.4180512,6.07354184 30.6960036,9.69842375 30.6960036,15.1581224 C30.6511001,20.4835662 27.4180512,24.6454677 21.5806017,24.6454677 Z" id="Shape" fill="#000000"></path>
                                <path d="M1.20364778e-15,43.679744 L1.20364778e-15,32.1265437 C1.20364778e-15,31.460013 0.587247666,30.8823529 1.26484113,30.8823529 C1.49070561,30.8823529 1.7165701,30.9267883 1.89726169,31.0600945 L12.1063365,36.8366946 L22.3154113,42.6132947 C22.902659,42.9687778 23.1285235,43.7241793 22.7671403,44.3018394 C22.6767945,44.4795809 22.4961029,44.6573224 22.3154113,44.7461932 L12.1063365,50.5227933 L1.89726169,56.2993934 C1.31001402,56.6548765 0.542074769,56.4326996 0.18069159,55.8550396 C0.0903457948,55.677298 0,55.4551211 0,55.2329442 C1.20364778e-15,55.2329442 1.20364778e-15,43.679744 1.20364778e-15,43.679744 Z" id="Shape" fill="#E40046"></path>
                            </g>
                        </g>
                    </g>
                </g>
            </g>
        </g>
    </g>
</svg>