<?xml version="1.0" encoding="UTF-8"?>
<svg width="80px" height="62px" viewBox="0 0 80 62" version="1.1" xmlns="http://www.w3.org/2000/svg" xmlns:xlink="http://www.w3.org/1999/xlink">
    <!-- Generator: Sketch 46.2 (44496) - http://www.bohemiancoding.com/sketch -->
    <title>mail</title>
    <desc>Created with Sketch.</desc>
    <defs></defs>
    <g id="Page-1" stroke="none" stroke-width="1" fill="none" fill-rule="evenodd">
        <g id="With-Social" transform="translate(-145.000000, -605.000000)" fill="#FFFFFF">
            <g id="Apps" transform="translate(0.000000, 360.000000)">
                <g transform="translate(60.000000, 40.000000)" id="Social">
                    <g transform="translate(0.000000, 193.000000)">
                        <g id="Mail" transform="translate(0.000000, 12.748503)">
                            <path d="M164.708471,0.488251561 C164.420217,0.130962101 163.965956,-0.0497169712 163.5108,0.0118859883 C163.40984,0.017628534 163.309945,0.0355427705 163.213289,0.0652389324 L85.986335,21.4254712 C85.414478,21.5893163 85.0152738,22.1051067 85.0004277,22.6993096 C84.9855815,23.2935124 85.3585304,23.8285616 85.9214929,24.0207108 L114.177396,33.4336946 L111.648554,54.0126873 C111.580952,54.5513231 111.840303,55.0785607 112.308418,55.3541327 C112.773039,55.6260818 113.356793,55.5867958 113.780715,55.2550487 L124.121124,47.2025651 L133.187577,60.3731204 C133.433177,60.734316 133.841407,60.9510884 134.27845,60.952381 L134.369992,60.952381 C134.839627,60.9185556 135.256179,60.6386792 135.46468,60.2168725 L164.834341,1.982134 C165.094507,1.50369249 165.045032,0.916502211 164.708471,0.488251561 Z M155.451307,5.01944089 L115.451353,31.0061356 L90.9753633,22.850757 L155.451307,5.01944089 Z M114.688505,51.1201955 L116.526969,36.1623166 L122.595428,44.9655523 L114.688505,51.1201955 Z M134.10681,56.9623429 L117.522486,32.8734886 L160.276322,5.0994703 L134.10681,56.9623429 Z" id="mail"></path>
                        </g>
                    </g>
                </g>
            </g>
        </g>
    </g>
</svg>