<?xml version="1.0" encoding="UTF-8"?>
<svg width="80px" height="80px" viewBox="0 0 80 80" version="1.1" xmlns="http://www.w3.org/2000/svg" xmlns:xlink="http://www.w3.org/1999/xlink">
    <!-- Generator: Sketch 46.2 (44496) - http://www.bohemiancoding.com/sketch -->
    <title>Logo</title>
    <desc>Created with Sketch.</desc>
    <defs>
        <radialGradient cx="59.1328003%" cy="37.5949289%" fx="59.1328003%" fy="37.5949289%" r="69.2594193%" gradientTransform="translate(0.591328,0.375949),rotate(90.000000),scale(1.000000,1.015464),translate(-0.591328,-0.375949)" id="radialGradient-1">
            <stop stop-color="#323232" offset="0%"></stop>
            <stop stop-color="#000000" offset="100%"></stop>
        </radialGradient>
    </defs>
    <g id="Page-1" stroke="none" stroke-width="1" fill="none" fill-rule="evenodd">
        <g id="With-Social" transform="translate(-745.000000, -465.000000)">
            <g id="Apps" transform="translate(0.000000, 360.000000)">
                <g transform="translate(60.000000, 40.000000)" id="Indie">
                    <g transform="translate(600.000000, 0.000000)">
                        <g id="Fortunes-By-Athena" transform="translate(0.000000, 42.000000)">
                            <g id="Logo" transform="translate(85.000000, 23.000000)">
                                <circle id="Oval" fill="url(#radialGradient-1)" cx="40" cy="40" r="40"></circle>
                                <g id="F" transform="translate(32.000000, 15.000000)" fill="#FFFFFF">
                                    <path d="M15,31 C6.71572875,31 0,24.0604136 0,15.5 C0,6.93958638 6.71572875,0 15,0 C23.2842712,0 30,6.93958638 30,15.5 C30,24.0604136 23.2842712,31 15,31 Z M17.5784543,13.3733345 L15.457146,14.4541951 L13.7498722,10.5959819 L16.1448977,9.37565548 L15.4500569,7.84278718 L11.4469428,9.8824757 L17.1131431,22.5678102 L18.7212316,21.7484482 L16.1519868,15.9870634 L18.2732951,14.9062028 L17.5784543,13.3733345 Z" id="Combined-Shape"></path>
                                </g>
                            </g>
                        </g>
                    </g>
                </g>
            </g>
        </g>
    </g>
</svg>