<?xml version="1.0" encoding="UTF-8"?>
<svg width="476px" height="80px" viewBox="0 0 476 80" version="1.1" xmlns="http://www.w3.org/2000/svg" xmlns:xlink="http://www.w3.org/1999/xlink">
    <!-- Generator: Sketch 47 (45396) - http://www.bohemiancoding.com/sketch -->
    <title>Fortunes by Athena</title>
    <desc>Created with Sketch.</desc>
    <defs>
        <radialGradient cx="59.1328003%" cy="37.5949289%" fx="59.1328003%" fy="37.5949289%" r="69.2594193%" gradientTransform="translate(0.591328,0.375949),rotate(90.000000),scale(1.000000,1.015464),translate(-0.591328,-0.375949)" id="radialGradient-1">
            <stop stop-color="#323232" offset="0%"></stop>
            <stop stop-color="#000000" offset="100%"></stop>
        </radialGradient>
    </defs>
    <g id="Page-1" stroke="none" stroke-width="1" fill="none" fill-rule="evenodd">
        <g id="Fortunes-by-Athena">
            <g id="Logo">
                <circle id="Oval" fill="url(#radialGradient-1)" cx="40" cy="40" r="40"></circle>
                <g id="F" transform="translate(32.000000, 15.000000)" fill="#FFFFFF">
                    <path d="M15,31 C6.71572875,31 0,24.0604136 0,15.5 C0,6.93958638 6.71572875,0 15,0 C23.2842712,0 30,6.93958638 30,15.5 C30,24.0604136 23.2842712,31 15,31 Z M17.5784543,13.3733345 L15.457146,14.4541951 L13.7498722,10.5959819 L16.1448977,9.37565548 L15.4500569,7.84278718 L11.4469428,9.8824757 L17.1131431,22.5678102 L18.7212316,21.7484482 L16.1519868,15.9870634 L18.2732951,14.9062028 L17.5784543,13.3733345 Z" id="Combined-Shape"></path>
                </g>
            </g>
            <path d="M116.896,35.568 L116.64,41.136 L108.704,41.136 L107.616,62 L101.6,62 L103.968,16.048 L118.944,16.048 L118.688,21.616 L109.728,21.616 L108.96,35.568 L116.896,35.568 Z M127.584,62 C122.719976,62 120.415999,59.3973594 120.672,54.192 L122.272,23.92 C122.528001,18.6719738 125.066643,16.048 129.888,16.048 L135.648,16.048 C140.469357,16.048 142.752001,18.6719738 142.496,23.92 L140.896,54.192 C140.639999,59.3973594 138.080024,62 133.216,62 L127.584,62 Z M129.248,56.432 L132.32,56.432 C133.941341,56.432 134.794666,55.536009 134.88,53.744 L136.48,24.304 C136.565334,22.511991 135.712009,21.616 133.92,21.616 L131.04,21.616 C129.290658,21.616 128.373334,22.511991 128.288,24.304 L126.688,53.744 C126.602666,55.536009 127.455991,56.432 129.248,56.432 Z M148.192,16.048 L159.968,16.048 C164.576023,16.048 166.752001,18.6719738 166.496,23.92 L165.92,35.248 C165.706666,39.2586867 164.362679,41.797328 161.888,42.864 L165.152,62 L159.456,62 L156.448,43.44 L152.8,43.44 L151.84,62 L145.824,62 L148.192,16.048 Z M153.056,38.192 L157.024,38.192 C158.816009,38.192 159.775999,37.0826778 159.904,34.864 L160.416,24.944 C160.544001,22.7253222 159.712009,21.616 157.92,21.616 L153.952,21.616 L153.056,38.192 Z M181.216,21.616 L179.104,62 L173.088,62 L175.2,21.616 L169.44,21.616 L169.696,16.048 L187.232,16.048 L186.976,21.616 L181.216,21.616 Z M210.272,16.048 L208.352,53.296 C208.053332,59.0986957 205.472024,62 200.608,62 L195.552,62 C190.730643,62 188.469332,59.0773626 188.768,53.232 L190.688,16.048 L196.704,16.048 L194.784,53.424 C194.655999,55.4293434 195.466658,56.432 197.216,56.432 L199.712,56.432 C201.333341,56.432 202.207999,55.4293434 202.336,53.424 L204.256,16.048 L210.272,16.048 Z M227.232,38.256 L228.384,16.048 L234.4,16.048 L232.032,62 L226.016,62 L226.464,52.848 L221.088,31.92 L219.552,62 L213.536,62 L215.904,16.048 L221.92,16.048 L227.232,38.256 Z M237.664,62 L240.032,16.048 L255.008,16.048 L254.752,21.616 L245.792,21.616 L245.024,35.568 L252.96,35.568 L252.704,41.136 L244.768,41.136 L243.936,56.432 L252.896,56.432 L252.64,62 L237.664,62 Z M270.176,28.4 L270.368,24.368 C270.496001,22.5333242 269.685342,21.616 267.936,21.616 L266.976,21.616 C265.269325,21.616 264.352001,22.5333242 264.224,24.368 L263.84,31.984 C263.797333,32.8373376 263.935998,33.4133318 264.256,33.712 C264.576002,34.0106682 265.098663,34.3946643 265.824,34.864 L271.328,38 C272.56534,38.725337 273.429331,39.2906646 273.92,39.696 C274.410669,40.1013354 274.794665,40.5919971 275.072,41.168 C275.349335,41.7440029 275.445334,42.8426586 275.36,44.464 L274.848,54.256 C274.591999,59.4186925 272.032024,62 267.168,62 L263.52,62 C258.698643,62 256.437332,59.1840282 256.736,53.552 L256.864,51.248 L262.88,51.248 L262.688,53.744 C262.602666,55.536009 263.455991,56.432 265.248,56.432 L266.336,56.432 C267.914675,56.432 268.746666,55.536009 268.832,53.744 L269.28,45.936 C269.322667,45.0826624 269.184002,44.5066682 268.864,44.208 C268.543998,43.9093318 268.021337,43.5253357 267.296,43.056 L261.792,39.792 C260.55466,39.1093299 259.669336,38.5333357 259.136,38.064 C258.602664,37.5946643 258.229334,36.9866704 258.016,36.24 C257.802666,35.4933296 257.717333,34.5226726 257.76,33.328 L258.272,23.92 C258.528001,18.6719738 261.066643,16.048 265.888,16.048 L269.6,16.048 C274.421357,16.048 276.704001,18.6719738 276.448,23.92 L276.192,28.4 L270.176,28.4 Z M304.736,38.384 C307.978683,39.3226714 309.536001,41.0719872 309.408,43.632 L308.768,55.152 C308.554666,59.7173562 306.165356,62 301.6,62 L289.504,62 L291.872,16.048 L302.176,16.048 C307.50936,16.048 310.026668,18.8213056 309.728,24.368 L309.28,33.2 C309.151999,35.8453466 307.637348,37.4666637 304.736,38.064 L304.736,38.384 Z M295.776,56.432 L300.32,56.432 C301.898675,56.432 302.730666,55.7706733 302.816,54.448 L303.328,44.272 C303.456001,42.0959891 302.325345,41.008 299.936,41.008 L296.608,41.008 L295.776,56.432 Z M296.864,35.44 L299.68,35.44 C301.984012,35.44 303.199999,34.3306778 303.328,32.112 L303.712,24.944 C303.840001,22.7253222 303.008009,21.616 301.216,21.616 L297.632,21.616 L296.864,35.44 Z M323.424,62 L317.408,62 L318.304,45.104 L312.352,16.048 L318.304,16.048 L321.824,36.016 L322.016,36.016 L327.136,16.048 L333.088,16.048 L324.32,45.104 L323.424,62 Z M349.856,62 L343.84,62 L345.824,23.92 C346.080001,18.6719738 348.618643,16.048 353.44,16.048 L357.92,16.048 C362.741357,16.048 365.024001,18.6719738 364.768,23.92 L362.784,62 L356.768,62 L357.6,45.168 L350.688,45.168 L349.856,62 Z M357.92,39.6 L358.752,24.304 C358.837334,22.511991 358.005342,21.616 356.256,21.616 L354.592,21.616 C352.842658,21.616 351.925334,22.511991 351.84,24.304 L351.008,39.6 L357.92,39.6 Z M379.808,21.616 L377.696,62 L371.68,62 L373.792,21.616 L368.032,21.616 L368.288,16.048 L385.824,16.048 L385.568,21.616 L379.808,21.616 Z M400.352,62 L401.44,41.136 L394.016,41.136 L392.928,62 L386.912,62 L389.28,16.048 L395.296,16.048 L394.272,35.568 L401.696,35.568 L402.72,16.048 L408.736,16.048 L406.368,62 L400.352,62 Z M412,62 L414.368,16.048 L429.344,16.048 L429.088,21.616 L420.128,21.616 L419.36,35.568 L427.296,35.568 L427.04,41.136 L419.104,41.136 L418.272,56.432 L427.232,56.432 L426.976,62 L412,62 Z M444.96,38.256 L446.112,16.048 L452.128,16.048 L449.76,62 L443.744,62 L444.192,52.848 L438.816,31.92 L437.28,62 L431.264,62 L433.632,16.048 L439.648,16.048 L444.96,38.256 Z M461.088,62 L455.072,62 L457.056,23.92 C457.312001,18.6719738 459.850643,16.048 464.672,16.048 L469.152,16.048 C473.973357,16.048 476.256001,18.6719738 476,23.92 L474.016,62 L468,62 L468.832,45.168 L461.92,45.168 L461.088,62 Z M469.152,39.6 L469.984,24.304 C470.069334,22.511991 469.237342,21.616 467.488,21.616 L465.824,21.616 C464.074658,21.616 463.157334,22.511991 463.072,24.304 L462.24,39.6 L469.152,39.6 Z" id="FORTUNES-BY-ATHENA" fill="#FFFFFF"></path>
        </g>
    </g>
</svg>