<?xml version="1.0" encoding="UTF-8"?>
<svg width="80px" height="79px" viewBox="0 0 80 79" version="1.1" xmlns="http://www.w3.org/2000/svg" xmlns:xlink="http://www.w3.org/1999/xlink">
    <!-- Generator: Sketch 46.2 (44496) - http://www.bohemiancoding.com/sketch -->
    <title>Fill 4</title>
    <desc>Created with Sketch.</desc>
    <defs></defs>
    <g id="Page-1" stroke="none" stroke-width="1" fill="none" fill-rule="evenodd">
        <g id="With-Social" transform="translate(-1045.000000, -618.000000)" fill="#FFFFFF">
            <g id="Apps" transform="translate(0.000000, 360.000000)">
                <g transform="translate(60.000000, 40.000000)" id="Social">
                    <g transform="translate(0.000000, 193.000000)">
                        <g id="GitHub" transform="translate(900.000000, 25.754491)">
                            <path d="M85,40.0003312 C85,57.6735252 96.4613124,72.6673567 112.354668,77.9565307 C114.353757,78.326806 115.087684,77.0888015 115.087684,76.0322915 C115.087684,75.0784517 115.05059,71.9274684 115.033368,68.5850549 C103.905237,71.0047609 101.557069,63.8655351 101.557069,63.8655351 C99.7374871,59.2420617 97.1157524,58.0126682 97.1157524,58.0126682 C93.4865245,55.5300352 97.389319,55.5810391 97.389319,55.5810391 C101.406044,55.8632167 103.521052,59.7030842 103.521052,59.7030842 C107.088677,65.8182571 112.878617,64.0503415 115.161209,63.0282757 C115.520224,60.4429725 116.556862,58.6783689 117.700807,57.6794866 C108.816187,56.668019 99.4765059,53.2381702 99.4765059,37.9111571 C99.4765059,33.5440282 101.039081,29.97574 103.597889,27.174498 C103.182571,26.1670048 101.813413,22.0986131 103.985386,16.5888636 C103.985386,16.5888636 107.344359,15.5138067 114.988325,20.6890499 C118.179052,19.8027738 121.600952,19.3583109 125.000331,19.343076 C128.39971,19.3583109 131.82426,19.8027738 135.020948,20.6890499 C142.655641,15.5138067 146.009977,16.5888636 146.009977,16.5888636 C148.187249,22.0986131 146.817429,26.1670048 146.402111,27.174498 C148.966881,29.97574 150.518857,33.5440282 150.518857,37.9111571 C150.518857,53.2746015 141.161292,56.6574208 132.25415,57.647692 C133.688884,58.8890085 134.967295,61.3232871 134.967295,65.0551853 C134.967295,70.4072863 134.920927,74.7148002 134.920927,76.0322915 C134.920927,77.0967502 135.640944,78.3440282 137.668516,77.9512316 C153.55326,72.656096 165,57.6675637 165,40.0003312 C165,17.908342 147.090996,0 125.000331,0 C102.911654,0 85,17.908342 85,40.0003312 Z" id="Fill-4"></path>
                        </g>
                    </g>
                </g>
            </g>
        </g>
    </g>
</svg>