<?xml version="1.0" encoding="UTF-8"?>
<svg width="140px" height="36px" viewBox="0 0 140 36" version="1.1" xmlns="http://www.w3.org/2000/svg" xmlns:xlink="http://www.w3.org/1999/xlink">
    <!-- Generator: Sketch 46.2 (44496) - http://www.bohemiancoding.com/sketch -->
    <title>linkedin</title>
    <desc>Created with Sketch.</desc>
    <defs></defs>
    <g id="Page-1" stroke="none" stroke-width="1" fill="none" fill-rule="evenodd">
        <g id="With-Social" transform="translate(-415.000000, -679.000000)" fill-rule="nonzero">
            <g id="Apps" transform="translate(0.000000, 360.000000)">
                <g transform="translate(60.000000, 40.000000)" id="Social">
                    <g transform="translate(0.000000, 193.000000)">
                        <g id="Linkedin" transform="translate(300.000000, 41.754491)">
                            <g id="linkedin" transform="translate(55.000000, 45.000000)">
                                <g id="in" transform="translate(104.270833, 0.000000)">
                                    <path d="M32.4650521,0 L2.63848958,0 C1.21223958,0 0.000364583333,1.12802083 0.000364583333,2.51854167 L0.000364583333,32.4807292 C0.000364583333,33.87125 1.21223958,35 2.63848958,35 L32.4650521,35 C33.8934896,35 35.0003646,33.87125 35.0003646,32.4807292 L35.0003646,2.51854167 C35.0003646,1.12802083 33.8934896,0 32.4650521,0" id="Shape" fill="#FFFFFF"></path>
                                    <path d="M32.4650521,0 L2.63848958,0 C1.21223958,0 0.000364583333,1.12802083 0.000364583333,2.51854167 L0.000364583333,32.4807292 C0.000364583333,33.87125 1.21223958,35 2.63848958,35 L32.4650521,35 C33.8934896,35 35.0003646,33.87125 35.0003646,32.4807292 L35.0003646,2.51854167 C35.0003646,1.12802083 33.8934896,0 32.4650521,0 Z M13.8541667,13.125 L18.59375,13.125 L18.59375,15.5064583 C19.2769792,14.1370833 21.0277083,12.90625 23.6578125,12.90625 C28.6992708,12.90625 29.8958333,15.631875 29.8958333,20.6332292 L29.8958333,29.8958333 L24.7916667,29.8958333 L24.7916667,21.7721875 C24.7916667,18.9240625 24.1084375,17.3177083 22.3708333,17.3177083 C19.9609375,17.3177083 18.9583333,19.0494792 18.9583333,21.7721875 L18.9583333,29.8958333 L13.8541667,29.8958333 L13.8541667,13.125 Z M5.10416667,29.8958333 L5.10416667,13.125 L10.2083333,13.125 L10.2083333,29.8958333 L5.10416667,29.8958333 Z M10.9375,7.65625 C10.9375,9.46822917 9.46822917,10.9375 7.65625,10.9375 C5.84427083,10.9375 4.375,9.46822917 4.375,7.65625 C4.375,5.84427083 5.84427083,4.375 7.65625,4.375 C9.46822917,4.375 10.9375,5.84427083 10.9375,7.65625 Z" id="Shape" fill="#0073B0"></path>
                                </g>
                                <g id="Linked" transform="translate(0.000000, 4.375000)" fill="#000000">
                                    <path d="M99.1666667,25.5208333 L94.7916667,25.5208333 L94.7916667,22.96875 C93.9954167,24.180625 91.6759375,25.7395833 89.3229167,25.7395833 C84.34125,25.7395833 81.0833333,22.5859375 81.0833333,17.5 C81.0833333,12.8289583 83.8184375,8.53125 88.59375,8.53125 C90.7382292,8.53125 92.8870833,8.94833333 94.0625,10.5729167 L94.0625,0.729166667 L99.1666667,0.729166667 L99.1666667,25.5208333 Z M89.8697917,13.0520833 C87.2746875,13.0520833 85.96875,14.6103125 85.96875,17.1354167 C85.96875,19.66125 87.2746875,21.2916667 89.8697917,21.2916667 C92.465625,21.2916667 94.1354167,19.66125 94.1354167,17.1354167 C94.1354167,14.6103125 92.465625,13.0520833 89.8697917,13.0520833 L89.8697917,13.0520833 Z" id="Shape"></path>
                                    <path d="M78.75,22.6953125 C77.0889583,24.80625 73.7595833,25.7395833 70.546875,25.7395833 C65.3573958,25.7395833 62.125,22.133125 62.125,16.7708333 C62.125,11.4078125 65.9895833,8.53125 71.2760417,8.53125 C75.6510417,8.53125 79.3333333,11.6061458 79.3333333,17.5 C79.3333333,18.4114583 79.1875,18.9583333 79.1875,18.9583333 L67.0833333,18.9583333 L67.1642708,19.446875 C67.4552083,21.0532292 69.1782292,21.875 71.1848958,21.875 C72.8794792,21.875 74.1482292,21.1370833 75.0130208,19.9609375 L78.75,22.6953125 Z M74.1927083,15.3125 C74.2269792,13.5821875 72.8364583,12.1770833 70.9683333,12.1770833 C68.6838542,12.1770833 67.2211458,13.6864583 67.0833333,15.3125 L74.1927083,15.3125 Z" id="Shape"></path>
                                    <polygon id="Shape" points="45.9375 0.729166667 51.0416667 0.729166667 51.0416667 15.3125 56.875 8.75 63.2552083 8.75 56.1458333 16.40625 62.9817708 25.5208333 56.875 25.5208333 51.0416667 17.5 51.0416667 25.5208333 45.9375 25.5208333"></polygon>
                                    <path d="M26.9791667,8.75 L31.3541667,8.75 L31.3541667,11.2109375 C32.0446875,9.89625 34.2978125,8.53125 36.8229167,8.53125 C42.0823958,8.53125 43.0208333,11.6353125 43.0208333,16.1328125 L43.0208333,25.5208333 L37.9166667,25.5208333 L37.9166667,17.2265625 C37.9166667,15.2898958 38.0275,12.9791667 35.3645833,12.9791667 C32.6666667,12.9791667 32.0833333,15.0470833 32.0833333,17.2265625 L32.0833333,25.5208333 L26.9791667,25.5208333 L26.9791667,8.75 Z" id="Shape"></path>
                                    <path d="M21.5104167,0.0911458333 C23.1969792,0.0911458333 24.7005208,1.59614583 24.7005208,3.28125 C24.7005208,4.96635417 23.1969792,6.47135417 21.5104167,6.47135417 C19.8260417,6.47135417 18.3203125,4.96635417 18.3203125,3.28125 C18.3203125,1.59614583 19.8260417,0.0911458333 21.5104167,0.0911458333 L21.5104167,0.0911458333 Z M18.9583333,25.5208333 L24.0625,25.5208333 L24.0625,8.75 L18.9583333,8.75 L18.9583333,25.5208333 Z" id="Shape"></path>
                                    <polygon id="Shape" points="0 0.729166667 5.10416667 0.729166667 5.10416667 20.4166667 16.0416667 20.4166667 16.0416667 25.5208333 0 25.5208333"></polygon>
                                </g>
                            </g>
                        </g>
                    </g>
                </g>
            </g>
        </g>
    </g>
</svg>