<?xml version="1.0" encoding="UTF-8"?>
<svg width="636px" height="53px" viewBox="0 0 636 53" version="1.1" xmlns="http://www.w3.org/2000/svg" xmlns:xlink="http://www.w3.org/1999/xlink">
    <!-- Generator: Sketch 47.1 (45422) - http://www.bohemiancoding.com/sketch -->
    <title>Group</title>
    <desc>Created with Sketch.</desc>
    <defs></defs>
    <g id="Page-1" stroke="none" stroke-width="1" fill="none" fill-rule="evenodd">
        <g id="Group" fill="#FFFFFF">
            <path d="M292.859375,26.828125 L266.632812,26.828125 L266.632812,52 L264.734375,52 L264.734375,0.8125 L296.445312,0.8125 L296.445312,2.7109375 L266.632812,2.7109375 L266.632812,24.859375 L292.859375,24.859375 L292.859375,26.828125 Z M342.183594,30.2382812 C342.183594,34.6679909 341.392586,38.5878736 339.810547,41.9980469 C338.228508,45.4082202 335.972671,48.0449126 333.042969,49.9082031 C330.113267,51.7714937 326.7383,52.703125 322.917969,52.703125 C317.152315,52.703125 312.488299,50.6523643 308.925781,46.5507812 C305.363263,42.4491982 303.582031,36.9180036 303.582031,29.9570312 L303.582031,22.5742188 C303.582031,18.1679467 304.373039,14.2539234 305.955078,10.8320312 C307.537117,7.41013914 309.798813,4.76758744 312.740234,2.90429688 C315.681655,1.04100631 319.050762,0.109375 322.847656,0.109375 C326.667988,0.109375 330.048813,1.04100631 332.990234,2.90429688 C335.931655,4.76758744 338.199211,7.41599846 339.792969,10.8496094 C341.386727,14.2832203 342.183594,18.1913843 342.183594,22.5742188 L342.183594,30.2382812 Z M340.285156,22.5039062 C340.285156,16.3163753 338.714859,11.3535343 335.574219,7.61523438 C332.433578,3.87693443 328.191433,2.0078125 322.847656,2.0078125 C317.574192,2.0078125 313.367203,3.8652158 310.226562,7.58007812 C307.085922,11.2949404 305.515625,16.3515305 305.515625,22.75 L305.515625,30.2382812 C305.515625,34.3164266 306.224602,37.9199062 307.642578,41.0488281 C309.060554,44.17775 311.082018,46.5859291 313.707031,48.2734375 C316.332044,49.9609459 319.402326,50.8046875 322.917969,50.8046875 C328.261745,50.8046875 332.492172,48.9414249 335.609375,45.2148438 C338.726578,41.4882626 340.285156,36.402376 340.285156,29.9570312 L340.285156,22.5039062 Z M373.367188,30.0976563 L355.613281,30.0976563 L355.613281,52 L353.714844,52 L353.714844,0.8125 L370.027344,0.8125 C375.160182,0.8125 379.244125,2.13670551 382.279297,4.78515625 C385.314468,7.43360699 386.832031,11.0312273 386.832031,15.578125 C386.832031,19.07033 385.748058,22.1230338 383.580078,24.7363281 C381.412099,27.3496224 378.652361,28.9726531 375.300781,29.6054688 L388.976562,51.5078125 L388.976562,52 L386.972656,52 L373.367188,30.0976563 Z M355.613281,28.1992188 L371.75,28.1992188 C375.68752,28.1992188 378.869128,27.0039182 381.294922,24.6132813 C383.720715,22.2226443 384.933594,19.2109557 384.933594,15.578125 C384.933594,11.5937301 383.59181,8.45313648 380.908203,6.15625 C378.224596,3.85936352 374.550805,2.7109375 369.886719,2.7109375 L355.613281,2.7109375 L355.613281,28.1992188 Z M448.882812,39.7304688 C448.882812,37.5507704 448.373052,35.7050857 447.353516,34.1933594 C446.333979,32.6816331 444.728527,31.3457089 442.537109,30.1855469 C440.345692,29.0253848 437.035178,27.8359436 432.605469,26.6171875 C428.175759,25.3984314 424.853527,24.167975 422.638672,22.9257812 C420.423817,21.6835875 418.800786,20.2421957 417.769531,18.6015625 C416.738276,16.9609293 416.222656,14.9687617 416.222656,12.625 C416.222656,8.89841887 417.792953,5.88087092 420.933594,3.57226562 C424.074234,1.26366033 428.164037,0.109375 433.203125,0.109375 C436.484391,0.109375 439.431628,0.748040488 442.044922,2.02539062 C444.658216,3.30274076 446.67968,5.09569158 448.109375,7.40429688 C449.53907,9.71290217 450.253906,12.320298 450.253906,15.2265625 L448.355469,15.2265625 C448.355469,11.4062309 446.949233,8.24805936 444.136719,5.75195312 C441.324205,3.25584689 437.67971,2.0078125 433.203125,2.0078125 C428.703102,2.0078125 425.064467,3.00975561 422.287109,5.01367188 C419.509752,7.01758814 418.121094,9.53123488 418.121094,12.5546875 C418.121094,15.6250154 419.328113,18.0976469 421.742188,19.9726562 C424.156262,21.8476656 428.140597,23.5058522 433.695312,24.9472656 C439.250028,26.3886791 443.316393,28.0585843 445.894531,29.9570312 C449.175798,32.3711058 450.816406,35.6054485 450.816406,39.6601562 C450.816406,42.2382941 450.089851,44.5175682 448.636719,46.4980469 C447.183586,48.4785255 445.121107,50.0078071 442.449219,51.0859375 C439.77733,52.1640679 436.77736,52.703125 433.449219,52.703125 C429.746075,52.703125 426.417984,52.0878968 423.464844,50.8574219 C420.511704,49.626947 418.291023,47.8750114 416.802734,45.6015625 C415.314446,43.3281136 414.570312,40.6445467 414.570312,37.5507812 L416.46875,37.5507812 C416.46875,41.7461147 418.039047,45.0038946 421.179688,47.3242188 C424.320328,49.6445429 428.410131,50.8046875 433.449219,50.8046875 C437.925804,50.8046875 441.617173,49.7793071 444.523438,47.7285156 C447.429702,45.6777241 448.882812,43.0117352 448.882812,39.7304688 Z M494.867188,2.7109375 L476.234375,2.7109375 L476.234375,52 L474.335938,52 L474.335938,2.7109375 L455.703125,2.7109375 L455.703125,0.8125 L494.867188,0.8125 L494.867188,2.7109375 Z M531.394531,26.6171875 L505.730469,26.6171875 L505.730469,50.1015625 L534.980469,50.1015625 L534.980469,52 L503.832031,52 L503.832031,0.8125 L534.980469,0.8125 L534.980469,2.7109375 L505.730469,2.7109375 L505.730469,24.71875 L531.394531,24.71875 L531.394531,26.6171875 Z M571.789062,36.7070312 L546.722656,36.7070312 L541.027344,52 L538.953125,52 L558.113281,0.8125 L560.433594,0.8125 L579.59375,52 L577.519531,52 L571.789062,36.7070312 Z M547.425781,34.8085938 L571.085938,34.8085938 L559.273438,3.09765625 L547.425781,34.8085938 Z M590.527344,0.8125 L611.585938,49.2226563 L632.714844,0.8125 L635.492188,0.8125 L635.492188,52 L633.59375,52 L633.59375,3.625 L612.359375,52 L610.847656,52 L589.71875,3.87109375 L589.71875,52 L587.820312,52 L587.820312,0.8125 L590.527344,0.8125 Z" id="For-Steam" opacity="0.5"></path>
            <path d="M14.3515625,0.8125 L27.5,37.9375 L40.578125,0.8125 L54.4296875,0.8125 L54.4296875,52 L43.8476562,52 L43.8476562,38.0078125 L44.9023438,13.8554688 L31.0859375,52 L23.84375,52 L10.0625,13.890625 L11.1171875,38.0078125 L11.1171875,52 L0.5703125,52 L0.5703125,0.8125 L14.3515625,0.8125 Z M94.4375,29.8164063 L74.1875,29.8164063 L74.1875,43.5273438 L97.953125,43.5273438 L97.953125,52 L63.640625,52 L63.640625,0.8125 L97.8828125,0.8125 L97.8828125,9.35546875 L74.1875,9.35546875 L74.1875,21.5546875 L94.4375,21.5546875 L94.4375,29.8164063 Z M143.375,9.35546875 L127.695313,9.35546875 L127.695313,52 L117.148438,52 L117.148438,9.35546875 L101.679688,9.35546875 L101.679688,0.8125 L143.375,0.8125 L143.375,9.35546875 Z M168.335938,33.2617188 L159.933594,33.2617188 L159.933594,52 L149.386719,52 L149.386719,0.8125 L168.40625,0.8125 C174.453155,0.8125 179.117171,2.16014277 182.398438,4.85546875 C185.679704,7.55079473 187.320312,11.3593504 187.320312,16.28125 C187.320312,19.773455 186.564461,22.6855352 185.052734,25.0175781 C183.541008,27.349621 181.250015,29.2070243 178.179688,30.5898438 L189.253906,51.5078125 L189.253906,52 L177.933594,52 L168.335938,33.2617188 Z M159.933594,24.71875 L168.441406,24.71875 C171.089857,24.71875 173.140618,24.0449286 174.59375,22.6972656 C176.046882,21.3496026 176.773438,19.4921993 176.773438,17.125 C176.773438,14.7109254 176.087897,12.8125069 174.716797,11.4296875 C173.345696,10.0468681 171.242202,9.35546875 168.40625,9.35546875 L159.933594,9.35546875 L159.933594,24.71875 Z M237.382813,27.5664062 C237.382813,32.6054939 236.492196,37.0234185 234.710938,40.8203125 C232.929679,44.6172065 230.380876,47.5468647 227.064453,49.609375 C223.74803,51.6718853 219.945334,52.703125 215.65625,52.703125 C211.414041,52.703125 207.628923,51.6836039 204.300781,49.6445312 C200.97264,47.6054586 198.39454,44.6933783 196.566406,40.9082031 C194.738272,37.1230279 193.8125,32.7695559 193.789063,27.8476563 L193.789063,25.3164062 C193.789063,20.2773186 194.697257,15.841816 196.513672,12.0097656 C198.330087,8.17771521 200.896468,5.23633838 204.212891,3.18554688 C207.529313,1.13475537 211.320291,0.109375 215.585938,0.109375 C219.851584,0.109375 223.642562,1.13475537 226.958984,3.18554688 C230.275407,5.23633838 232.841788,8.17771521 234.658203,12.0097656 C236.474618,15.841816 237.382813,20.2655999 237.382813,25.28125 L237.382813,27.5664062 Z M226.695313,25.2460938 C226.695313,19.8788794 225.734385,15.8007952 223.8125,13.0117188 C221.890615,10.2226423 219.148455,8.828125 215.585938,8.828125 C212.046857,8.828125 209.316416,10.2050644 207.394531,12.9589844 C205.472647,15.7129044 204.5,19.7499734 204.476563,25.0703125 L204.476563,27.5664062 C204.476563,32.7929949 205.43749,36.8476418 207.359375,39.7304688 C209.28126,42.6132957 212.046857,44.0546875 215.65625,44.0546875 C219.19533,44.0546875 221.914053,42.6660295 223.8125,39.8886719 C225.710947,37.1113142 226.671875,33.0625266 226.695313,27.7421875 L226.695313,25.2460938 Z" id="Metro"></path>
        </g>
    </g>
</svg>