<?xml version="1.0" encoding="UTF-8"?>
<svg width="237px" height="53px" viewBox="0 0 237 53" version="1.1" xmlns="http://www.w3.org/2000/svg" xmlns:xlink="http://www.w3.org/1999/xlink">
    <g stroke="none" stroke-width="1" fill="none" fill-rule="evenodd">
        <path d="M13.78125,0.703125 L26.9296875,37.828125 L40.0078125,0.703125 L53.859375,0.703125 L53.859375,51.890625 L43.2773438,51.890625 L43.2773438,37.8984375 L44.3320312,13.7460938 L30.515625,51.890625 L23.2734375,51.890625 L9.4921875,13.78125 L10.546875,37.8984375 L10.546875,51.890625 L0,51.890625 L0,0.703125 L13.78125,0.703125 Z M93.8671875,29.7070313 L73.6171875,29.7070313 L73.6171875,43.4179688 L97.3828125,43.4179688 L97.3828125,51.890625 L63.0703125,51.890625 L63.0703125,0.703125 L97.3125,0.703125 L97.3125,9.24609375 L73.6171875,9.24609375 L73.6171875,21.4453125 L93.8671875,21.4453125 L93.8671875,29.7070313 Z M142.804688,9.24609375 L127.125,9.24609375 L127.125,51.890625 L116.578125,51.890625 L116.578125,9.24609375 L101.109375,9.24609375 L101.109375,0.703125 L142.804688,0.703125 L142.804688,9.24609375 Z M167.765625,33.1523438 L159.363281,33.1523438 L159.363281,51.890625 L148.816406,51.890625 L148.816406,0.703125 L167.835938,0.703125 C173.882843,0.703125 178.546859,2.05076777 181.828125,4.74609375 C185.109391,7.44141973 186.75,11.2499754 186.75,16.171875 C186.75,19.66408 185.994148,22.5761602 184.482422,24.9082031 C182.970696,27.240246 180.679703,29.0976493 177.609375,30.4804688 L188.683594,51.3984375 L188.683594,51.890625 L177.363281,51.890625 L167.765625,33.1523438 Z M159.363281,24.609375 L167.871094,24.609375 C170.519544,24.609375 172.570305,23.9355536 174.023438,22.5878906 C175.47657,21.2402276 176.203125,19.3828243 176.203125,17.015625 C176.203125,14.6015504 175.517585,12.7031319 174.146484,11.3203125 C172.775384,9.93749309 170.671889,9.24609375 167.835938,9.24609375 L159.363281,9.24609375 L159.363281,24.609375 Z M236.8125,27.4570312 C236.8125,32.4961189 235.921884,36.9140435 234.140625,40.7109375 C232.359366,44.5078315 229.810563,47.4374897 226.494141,49.5 C223.177718,51.5625103 219.375021,52.59375 215.085938,52.59375 C210.843729,52.59375 207.05861,51.5742289 203.730469,49.5351562 C200.402327,47.4960836 197.824228,44.5840033 195.996094,40.7988281 C194.16796,37.0136529 193.242188,32.6601809 193.21875,27.7382813 L193.21875,25.2070312 C193.21875,20.1679436 194.126944,15.732441 195.943359,11.9003906 C197.759775,8.06834021 200.326155,5.12696338 203.642578,3.07617188 C206.959001,1.02538037 210.749979,0 215.015625,0 C219.281271,0 223.072249,1.02538037 226.388672,3.07617188 C229.705095,5.12696338 232.271475,8.06834021 234.087891,11.9003906 C235.904306,15.732441 236.8125,20.1562249 236.8125,25.171875 L236.8125,27.4570312 Z M226.125,25.1367188 C226.125,19.7695044 225.164072,15.6914202 223.242188,12.9023438 C221.320303,10.1132673 218.578143,8.71875 215.015625,8.71875 C211.476545,8.71875 208.746103,10.0956894 206.824219,12.8496094 C204.902334,15.6035294 203.929688,19.6405984 203.90625,24.9609375 L203.90625,27.4570312 C203.90625,32.6836199 204.867178,36.7382668 206.789063,39.6210938 C208.710947,42.5039207 211.476544,43.9453125 215.085938,43.9453125 C218.625018,43.9453125 221.343741,42.5566545 223.242188,39.7792969 C225.140634,37.0019392 226.101562,32.9531516 226.125,27.6328125 L226.125,25.1367188 Z" fill="#FFFFFF"></path>
    </g>
</svg>