<?xml version="1.0" encoding="UTF-8"?>
<svg width="273px" height="53px" viewBox="0 0 273 53" version="1.1" xmlns="http://www.w3.org/2000/svg" xmlns:xlink="http://www.w3.org/1999/xlink">
    <!-- Generator: Sketch 47.1 (45422) - http://www.bohemiancoding.com/sketch -->
    <title>RESUME</title>
    <desc>Created with Sketch.</desc>
    <defs></defs>
    <g id="Page-1" stroke="none" stroke-width="1" fill="none" fill-rule="evenodd">
        <path d="M20.5078125,30.0976563 L2.75390625,30.0976563 L2.75390625,52 L0.85546875,52 L0.85546875,0.8125 L17.1679688,0.8125 C22.3008069,0.8125 26.3847504,2.13670551 29.4199219,4.78515625 C32.4550933,7.43360699 33.9726562,11.0312273 33.9726562,15.578125 C33.9726562,19.07033 32.8886827,22.1230338 30.7207031,24.7363281 C28.5527235,27.3496224 25.7929855,28.9726531 22.4414062,29.6054688 L36.1171875,51.5078125 L36.1171875,52 L34.1132812,52 L20.5078125,30.0976563 Z M2.75390625,28.1992188 L18.890625,28.1992188 C22.8281447,28.1992188 26.0097535,27.0039182 28.4355469,24.6132813 C30.8613403,22.2226443 32.0742188,19.2109557 32.0742188,15.578125 C32.0742188,11.5937301 30.7324353,8.45313648 28.0488281,6.15625 C25.365221,3.85936352 21.6914296,2.7109375 17.0273438,2.7109375 L2.75390625,2.7109375 L2.75390625,28.1992188 Z M75.703125,26.6171875 L50.0390625,26.6171875 L50.0390625,50.1015625 L79.2890625,50.1015625 L79.2890625,52 L48.140625,52 L48.140625,0.8125 L79.2890625,0.8125 L79.2890625,2.7109375 L50.0390625,2.7109375 L50.0390625,24.71875 L75.703125,24.71875 L75.703125,26.6171875 Z M119.789062,39.7304688 C119.789062,37.5507704 119.279302,35.7050857 118.259766,34.1933594 C117.240229,32.6816331 115.634777,31.3457089 113.443359,30.1855469 C111.251942,29.0253848 107.941428,27.8359436 103.511719,26.6171875 C99.0820091,25.3984314 95.7597767,24.167975 93.5449219,22.9257812 C91.3300671,21.6835875 89.7070364,20.2421957 88.6757812,18.6015625 C87.6445261,16.9609293 87.1289062,14.9687617 87.1289062,12.625 C87.1289062,8.89841887 88.699203,5.88087092 91.8398438,3.57226562 C94.9804845,1.26366033 99.0702873,0.109375 104.109375,0.109375 C107.390641,0.109375 110.337878,0.748040488 112.951172,2.02539062 C115.564466,3.30274076 117.58593,5.09569158 119.015625,7.40429688 C120.44532,9.71290217 121.160156,12.320298 121.160156,15.2265625 L119.261719,15.2265625 C119.261719,11.4062309 117.855483,8.24805936 115.042969,5.75195312 C112.230455,3.25584689 108.58596,2.0078125 104.109375,2.0078125 C99.6093525,2.0078125 95.970717,3.00975561 93.1933594,5.01367188 C90.4160017,7.01758814 89.0273438,9.53123488 89.0273438,12.5546875 C89.0273438,15.6250154 90.2343629,18.0976469 92.6484375,19.9726562 C95.0625121,21.8476656 99.0468472,23.5058522 104.601562,24.9472656 C110.156278,26.3886791 114.222643,28.0585843 116.800781,29.9570312 C120.082048,32.3711058 121.722656,35.6054485 121.722656,39.6601562 C121.722656,42.2382941 120.996101,44.5175682 119.542969,46.4980469 C118.089836,48.4785255 116.027357,50.0078071 113.355469,51.0859375 C110.68358,52.1640679 107.68361,52.703125 104.355469,52.703125 C100.652325,52.703125 97.3242335,52.0878968 94.3710938,50.8574219 C91.417954,49.626947 89.1972731,47.8750114 87.7089844,45.6015625 C86.2206957,43.3281136 85.4765625,40.6445467 85.4765625,37.5507812 L87.375,37.5507812 C87.375,41.7461147 88.9452968,45.0038946 92.0859375,47.3242188 C95.2265782,49.6445429 99.3163811,50.8046875 104.355469,50.8046875 C108.832054,50.8046875 112.523423,49.7793071 115.429688,47.7285156 C118.335952,45.6777241 119.789062,43.0117352 119.789062,39.7304688 Z M166.160156,0.8125 L166.160156,35.4765625 C166.160156,40.8906521 164.589859,45.1152192 161.449219,48.1503906 C158.308578,51.1855621 154.054714,52.703125 148.6875,52.703125 C143.320286,52.703125 139.066422,51.1855621 135.925781,48.1503906 C132.785141,45.1152192 131.203125,40.9375266 131.179688,35.6171875 L131.179688,0.8125 L133.078125,0.8125 L133.078125,35.40625 C133.078125,40.1406487 134.501939,43.8906112 137.349609,46.65625 C140.19728,49.4218888 143.976539,50.8046875 148.6875,50.8046875 C153.398461,50.8046875 157.171861,49.4218888 160.007812,46.65625 C162.843764,43.8906112 164.261719,40.12893 164.261719,35.3710938 L164.261719,0.8125 L166.160156,0.8125 Z M182.402344,0.8125 L203.460938,49.2226563 L224.589844,0.8125 L227.367188,0.8125 L227.367188,52 L225.46875,52 L225.46875,3.625 L204.234375,52 L202.722656,52 L181.59375,3.87109375 L181.59375,52 L179.695312,52 L179.695312,0.8125 L182.402344,0.8125 Z M268.992188,26.6171875 L243.328125,26.6171875 L243.328125,50.1015625 L272.578125,50.1015625 L272.578125,52 L241.429688,52 L241.429688,0.8125 L272.578125,0.8125 L272.578125,2.7109375 L243.328125,2.7109375 L243.328125,24.71875 L268.992188,24.71875 L268.992188,26.6171875 Z" id="RESUME" fill="#FFFFFF"></path>
    </g>
</svg>