<?xml version="1.0" encoding="UTF-8"?>
<svg width="499px" height="37px" viewBox="0 0 499 37" version="1.1" xmlns="http://www.w3.org/2000/svg" xmlns:xlink="http://www.w3.org/1999/xlink">
    <g id="Page-1" stroke="none" stroke-width="1" fill="none" fill-rule="evenodd">
        <g id="With-Social" transform="translate(-320.000000, -64.000000)" fill="#FFFFFF">
            <g id="Expanded-Information">
                <g id="Content" transform="translate(77.000000, 65.000000)">
                    <g id="Description" transform="translate(243.000000, 0.000000)">
                        <path d="M0.816,2.072 C3.072,2.072 3.792,2.792 4.512,5.048 L14.256,35.816 L15.984,35.816 L23.616,10.376 L31.632,35.816 L33.264,35.816 L41.76,7.352 C42.72,4.088 43.68,2.456 46.752,2.072 L46.752,0.344 L35.904,0.344 L35.904,2.12 L36.96,2.12 C38.88,2.12 39.84,3.08 39.84,5.048 C39.84,5.768 39.696,6.68 39.504,7.352 L33.6,27.032 L26.4,4.28 C26.352,4.088 26.256,3.608 26.256,3.416 C26.256,2.408 27.168,2.12 28.8,2.12 L30.912,2.12 L30.912,0.344 L16.416,0.344 L16.416,2.12 L19.152,2.12 C21.12,2.12 21.456,3.464 22.464,6.728 L16.272,27.032 L9.216,5.048 C9.024,4.52 8.736,3.704 8.736,3.272 C8.736,2.36 9.504,2.12 10.896,2.12 L12.384,2.12 L12.384,0.344 L0.816,0.344 L0.816,2.072 Z M48.864,2.12 L51.552,2.12 C54.144,2.12 54.432,2.648 54.432,4.472 L54.432,30.728 C54.432,32.792 54.048,33.224 51.888,33.224 L48.864,33.224 L48.864,35 L64.848,35 L64.848,33.224 L61.776,33.224 C59.616,33.224 59.376,32.648 59.376,30.728 L59.376,4.472 C59.376,2.648 59.52,2.12 62.112,2.12 L64.848,2.12 L64.848,0.344 L48.864,0.344 L48.864,2.12 Z M68.112,2.12 L72.048,2.12 C72.912,2.12 73.584,2.744 73.584,3.848 L73.584,30.92 C73.584,32.648 72.816,33.224 70.944,33.224 L68.112,33.224 L68.112,35 L97.008,35 L97.776,21.656 L96.144,21.656 C94.752,29.528 91.872,33.224 86.16,33.224 L81.312,33.224 C79.536,33.224 78.528,32.84 78.528,31.784 L78.528,3.8 C78.528,2.744 79.2,2.12 80.352,2.12 L84.192,2.12 L84.192,0.344 L68.112,0.344 L68.112,2.12 Z M100.128,2.12 L104.064,2.12 C104.928,2.12 105.6,2.744 105.6,3.848 L105.6,30.92 C105.6,32.648 104.832,33.224 102.96,33.224 L100.128,33.224 L100.128,35 L129.024,35 L129.792,21.656 L128.16,21.656 C126.768,29.528 123.888,33.224 118.176,33.224 L113.328,33.224 C111.552,33.224 110.544,32.84 110.544,31.784 L110.544,3.8 C110.544,2.744 111.216,2.12 112.368,2.12 L116.208,2.12 L116.208,0.344 L100.128,0.344 L100.128,2.12 Z M132.432,2.12 L135.12,2.12 C137.712,2.12 138,2.648 138,4.472 L138,30.728 C138,32.792 137.616,33.224 135.456,33.224 L132.432,33.224 L132.432,35 L148.416,35 L148.416,33.224 L145.344,33.224 C143.184,33.224 142.944,32.648 142.944,30.728 L142.944,4.472 C142.944,2.648 143.088,2.12 145.68,2.12 L148.416,2.12 L148.416,0.344 L132.432,0.344 L132.432,2.12 Z M149.856,33.224 L150.24,33.224 C152.688,33.224 154.032,31.832 155.184,29 L166.992,-0.424 L168.528,-0.424 L181.008,31.304 C181.536,32.6 182.544,33.224 184.032,33.224 L185.136,33.224 L185.136,35 L171.312,35 L171.312,33.224 L172.416,33.224 C174.816,33.224 176.064,32.84 176.064,31.784 C176.064,31.448 176.016,31.256 175.872,30.92 L173.04,23.528 L159.312,23.528 L157.728,27.8 C157.392,28.712 157.056,29.72 157.056,30.584 C157.056,31.88 158.544,33.224 161.28,33.224 L162.432,33.224 L162.432,35 L149.856,35 L149.856,33.224 Z M160.08,21.752 L172.32,21.752 L166.272,6.296 L160.08,21.752 Z M185.616,2.12 L189.072,2.12 C190.416,2.12 191.136,2.648 191.136,3.8 L191.136,27.704 C191.136,31.928 189.552,32.984 185.616,33.224 L185.616,35 L198.72,35 L198.72,33.224 C194.88,32.984 193.056,31.928 193.056,27.416 L193.056,2.216 L205.392,35 L206.976,35 L218.448,2.072 L218.448,31.544 C218.448,32.552 217.488,33.224 216.384,33.224 L213.024,33.224 L213.024,35 L228.864,35 L228.864,33.224 L225.792,33.224 C224.352,33.224 223.392,32.6 223.392,31.544 L223.392,4.088 C223.392,2.744 224.016,2.12 225.312,2.12 L228.864,2.12 L228.864,0.344 L217.056,0.344 L207.504,27.704 L197.184,0.344 L185.616,0.344 L185.616,2.12 Z M233.28,21.992 L233.28,35.432 L234.96,35.432 L237.6,32.168 C240.288,34.52 243.216,35.672 246.912,35.672 C253.68,35.672 258.24,30.968 258.24,24.776 C258.24,13.544 243.072,15.752 238.704,11.96 C237.504,10.904 236.88,9.464 236.88,7.736 C236.88,4.328 239.664,1.4 243.984,1.4 C249.168,1.4 252.96,5.192 254.784,12.584 L256.32,12.584 L256.176,-0.088 L254.496,-0.088 L252.336,2.936 C249.888,0.824 247.488,-0.424 244.032,-0.424 C238.128,-0.424 233.76,3.944 233.76,9.944 C233.76,17.336 238.896,18.632 248.832,20.888 C252.672,21.752 254.928,23.912 254.928,26.984 C254.928,30.776 251.76,33.992 247.104,33.992 C241.152,33.992 236.208,29.288 234.96,21.992 L233.28,21.992 Z M276.864,21.992 L276.864,35.432 L278.544,35.432 L281.184,32.168 C283.872,34.52 286.8,35.672 290.496,35.672 C297.264,35.672 301.824,30.968 301.824,24.776 C301.824,13.544 286.656,15.752 282.288,11.96 C281.088,10.904 280.464,9.464 280.464,7.736 C280.464,4.328 283.248,1.4 287.568,1.4 C292.752,1.4 296.544,5.192 298.368,12.584 L299.904,12.584 L299.76,-0.088 L298.08,-0.088 L295.92,2.936 C293.472,0.824 291.072,-0.424 287.616,-0.424 C281.712,-0.424 277.344,3.944 277.344,9.944 C277.344,17.336 282.48,18.632 292.416,20.888 C296.256,21.752 298.512,23.912 298.512,26.984 C298.512,30.776 295.344,33.992 290.688,33.992 C284.736,33.992 279.792,29.288 278.544,21.992 L276.864,21.992 Z M322.368,-0.424 C331.536,-0.424 338.736,7.112 338.736,17.72 C338.736,28.28 331.44,35.816 322.608,35.816 C313.728,35.816 306.576,28.232 306.576,17.576 C306.576,7.016 314.016,-0.424 322.368,-0.424 Z M322.752,1.4 C319.056,1.4 315.936,3.464 314.16,7.208 C313.008,9.656 312.48,13.112 312.48,17.528 C312.48,28.472 315.84,33.992 322.608,33.992 C329.184,33.992 332.832,28.568 332.832,17.912 C332.832,6.968 329.376,1.4 322.752,1.4 Z M343.296,2.12 L344.88,2.12 C347.088,2.12 347.52,3.176 348.672,4.328 L348.672,27.848 C348.672,30.92 346.464,33.128 343.296,33.224 L343.296,35 L356.496,35 L356.496,33.224 C352.512,33.128 350.64,31.352 350.64,27.56 L350.64,6.68 L372.288,35 L374.496,35 L374.496,7.448 C374.496,4.184 376.224,2.12 379.104,2.12 L379.536,2.12 L379.536,0.344 L367.392,0.344 L367.392,2.072 C370.8,2.168 372.48,4.088 372.48,7.88 L372.48,27.56 L351.6,0.344 L343.296,0.344 L343.296,2.12 Z M398.832,-0.424 C408,-0.424 415.2,7.112 415.2,17.72 C415.2,28.28 407.904,35.816 399.072,35.816 C390.192,35.816 383.04,28.232 383.04,17.576 C383.04,7.016 390.48,-0.424 398.832,-0.424 Z M399.216,1.4 C395.52,1.4 392.4,3.464 390.624,7.208 C389.472,9.656 388.944,13.112 388.944,17.528 C388.944,28.472 392.304,33.992 399.072,33.992 C405.648,33.992 409.296,28.568 409.296,17.912 C409.296,6.968 405.84,1.4 399.216,1.4 Z M418.56,2.12 L422.016,2.12 C423.36,2.12 424.08,2.648 424.08,3.8 L424.08,27.704 C424.08,31.928 422.496,32.984 418.56,33.224 L418.56,35 L431.664,35 L431.664,33.224 C427.824,32.984 426,31.928 426,27.416 L426,2.216 L438.336,35 L439.92,35 L451.392,2.072 L451.392,31.544 C451.392,32.552 450.432,33.224 449.328,33.224 L445.968,33.224 L445.968,35 L461.808,35 L461.808,33.224 L458.736,33.224 C457.296,33.224 456.336,32.6 456.336,31.544 L456.336,4.088 C456.336,2.744 456.96,2.12 458.256,2.12 L461.808,2.12 L461.808,0.344 L450,0.344 L440.448,27.704 L430.128,0.344 L418.56,0.344 L418.56,2.12 Z M462.768,33.224 L463.152,33.224 C465.6,33.224 466.944,31.832 468.096,29 L479.904,-0.424 L481.44,-0.424 L493.92,31.304 C494.448,32.6 495.456,33.224 496.944,33.224 L498.048,33.224 L498.048,35 L484.224,35 L484.224,33.224 L485.328,33.224 C487.728,33.224 488.976,32.84 488.976,31.784 C488.976,31.448 488.928,31.256 488.784,30.92 L485.952,23.528 L472.224,23.528 L470.64,27.8 C470.304,28.712 469.968,29.72 469.968,30.584 C469.968,31.88 471.456,33.224 474.192,33.224 L475.344,33.224 L475.344,35 L462.768,35 L462.768,33.224 Z M472.992,21.752 L485.232,21.752 L479.184,6.296 L472.992,21.752 Z" id="WILLIAMS-SONOMA"></path>
                    </g>
                </g>
            </g>
        </g>
    </g>
</svg>