<?xml version="1.0" encoding="UTF-8"?>
<svg width="150px" height="69px" viewBox="0 0 150 69" version="1.1" xmlns="http://www.w3.org/2000/svg" xmlns:xlink="http://www.w3.org/1999/xlink">
    <!-- Generator: Sketch 46.2 (44496) - http://www.bohemiancoding.com/sketch -->
    <title>ws-logo</title>
    <desc>Created with Sketch.</desc>
    <defs></defs>
    <g id="Page-1" stroke="none" stroke-width="1" fill="none" fill-rule="evenodd">
        <g id="With-Social" transform="translate(-110.000000, -470.000000)" fill-rule="nonzero" fill="#FFFFFF">
            <g id="Apps" transform="translate(0.000000, 360.000000)">
                <g transform="translate(60.000000, 40.000000)" id="Professional">
                    <g>
                        <g id="Williams-Sonoma" transform="translate(0.000000, 42.000000)">
                            <g id="ws-logo" transform="translate(50.000000, 27.500000)">
                                <path d="M28.2792208,2.08441558 C28.0048565,2.10292132 27.7341274,2.15750379 27.474026,2.24675325 C27.1761546,2.3399266 26.8905578,2.46855416 26.6233766,2.62987013 C26.3203405,2.81569794 26.0540165,3.05560959 25.8376623,3.33766234 C25.6043178,3.67417815 25.4287478,4.04726445 25.3181818,4.44155844 C24.6601732,6.58441558 23.8939394,9.08658009 23.0194805,11.9480519 C22.1450216,14.8095238 21.2034632,17.8679654 20.1948052,21.1233766 L18.8961039,21.1233766 L13.9285714,5.88311688 L8.74675325,21.1233766 L7.51948052,21.1233766 L4.66233766,10.9805195 L2.71428571,3.96103896 C2.62979716,3.68697574 2.49793246,3.42983957 2.32467532,3.2012987 C2.14388024,2.9665881 1.92426186,2.7645392 1.67532468,2.6038961 C1.42168229,2.43642195 1.14022698,2.31548412 0.844155844,2.24675325 C0.567952586,2.16850764 0.285523794,2.11419441 0,2.08441558 L0,1.0974026 L8.05194805,1.0974026 L8.05194805,2.08441558 C7.45027482,2.10984733 6.851271,2.17929705 6.25974026,2.29220779 C5.76190476,2.39177489 5.51298701,2.56277056 5.51298701,2.80519481 C5.51521505,2.92946788 5.52825122,3.05331148 5.55194805,3.17532468 C5.55194805,3.32467532 5.6038961,3.44805195 5.62337662,3.54545455 C5.83549784,4.36363636 6.21212121,5.71428571 6.75324675,7.5974026 C7.29437229,9.48051948 8.0995671,12.2943723 9.16883117,16.038961 L14.0909091,1.37662338 L15.4545455,1.37662338 L20.4285714,16.3701299 C21.0995671,14.0541126 21.6753247,12.038961 22.1558442,10.3246753 C22.6363636,8.61038961 23.04329,7.13419913 23.3766234,5.8961039 C23.6017316,5.03030303 23.7402597,4.43722944 23.7922078,4.11688312 C23.8432152,3.84700195 23.8714531,3.5733117 23.8766234,3.2987013 C23.8353153,2.929694 23.5809952,2.61942343 23.2272727,2.50649351 C22.5607667,2.24233256 21.8530483,2.09727226 21.1363636,2.07792208 L21.1363636,1.0974026 L28.2792208,1.0974026 L28.2792208,2.08441558 L28.2792208,2.08441558 L28.2792208,2.08441558 Z" id="Shape"></path>
                                <path d="M38.4285714,20.8441558 L29.5324675,20.8441558 L29.5324675,19.8571429 L30.6168831,19.7662338 C30.9582062,19.7530914 31.2964474,19.6963542 31.6233766,19.5974026 C31.8847073,19.5022685 32.1110958,19.3302133 32.2727273,19.1038961 C32.4197868,18.840903 32.4874527,18.5409175 32.4675325,18.2402597 L32.4675325,3.95454545 C32.4772273,3.67424686 32.4262828,3.39515982 32.3181818,3.13636364 C32.1558248,2.86833652 31.8984894,2.6712779 31.5974026,2.58441558 C31.2629896,2.46213935 30.9200842,2.36447643 30.5714286,2.29220779 C30.2300451,2.20755343 29.8827263,2.14894339 29.5324675,2.11688312 L29.5324675,1.0974026 L38.4285714,1.0974026 L38.4285714,2.08441558 C38.0827018,2.09913322 37.7379714,2.13382307 37.3961039,2.18831169 C37.0466703,2.24075202 36.701579,2.31888592 36.3636364,2.42207792 C36.0632928,2.48755476 35.8041804,2.67600011 35.6493506,2.94155844 C35.5265639,3.20126431 35.4643929,3.48547502 35.4675325,3.77272727 L35.4675325,18.0584416 C35.4611429,18.3441664 35.5306009,18.6264796 35.6688312,18.8766234 C35.8276879,19.1348827 36.0673641,19.3334715 36.3506494,19.4415584 C36.6621611,19.5477374 36.9812515,19.6302234 37.3051948,19.6883117 C37.6728266,19.7682802 38.0463514,19.8182283 38.4220779,19.8376623 L38.4220779,20.8246753 L38.4220779,20.8246753 L38.4285714,20.8441558 Z" id="Shape"></path>
                                <path d="M56.6948052,14.9675325 L56.2792208,20.8116883 L40.8441558,20.8116883 L40.8441558,19.8571429 L41.8181818,19.7662338 C42.1237988,19.7469418 42.4253178,19.685764 42.7142857,19.5844156 C42.9676821,19.4825227 43.178522,19.296892 43.3116883,19.0584416 C43.4499874,18.7805369 43.5169351,18.4725773 43.5064935,18.1623377 L43.5064935,4.01948052 C43.5118677,3.73195248 43.4565518,3.44652255 43.3441558,3.18181818 C43.2107935,2.90791704 42.9788512,2.69453017 42.6948052,2.58441558 C42.4080183,2.44413108 42.1077927,2.33317814 41.7987013,2.25324675 C41.487176,2.1604901 41.1675679,2.09743817 40.8441558,2.06493506 L40.8441558,1.0974026 L49.1948052,1.0974026 L49.1948052,2.08441558 C48.8560897,2.10565943 48.5195608,2.15342481 48.1883117,2.22727273 C47.8853819,2.28249645 47.58612,2.35622765 47.2922078,2.44805195 C47.0029881,2.53508848 46.7659592,2.74367393 46.6428571,3.01948052 C46.5255727,3.29221625 46.4658843,3.58623693 46.4675325,3.88311688 L46.4675325,17.1428571 C46.4580108,17.6207481 46.4884195,18.0985995 46.5584416,18.5714286 C46.6019689,18.8749476 46.7514845,19.1532767 46.9805195,19.3571429 C47.264039,19.5495602 47.5932953,19.6637919 47.9350649,19.6883117 C48.5240446,19.7475165 49.1158893,19.7735317 49.7077922,19.7662338 C50.0497835,19.7662338 50.4069264,19.7662338 50.7792208,19.7662338 C51.1338591,19.7497581 51.4872564,19.7129007 51.8376623,19.6558442 C52.1423151,19.6058603 52.4421164,19.5298238 52.7337662,19.4285714 C52.9606141,19.3568647 53.1659616,19.2296385 53.3311688,19.0584416 C53.8354758,18.4526318 54.2811941,17.800361 54.6623377,17.1103896 C55.0723398,16.4381082 55.4242641,15.7320871 55.7142857,15 L56.6948052,15 L56.6948052,14.9675325 Z" id="Shape"></path>
                                <path d="M74.2727273,14.9675325 L73.8571429,20.8116883 L58.4415584,20.8116883 L58.4415584,19.8571429 L59.4090909,19.7597403 C59.7147079,19.7404483 60.0162269,19.6792705 60.3051948,19.5779221 C60.5585912,19.4760292 60.7694311,19.2903985 60.9025974,19.0519481 C61.0219101,18.7669649 61.0687603,18.4568615 61.038961,18.1493506 L61.038961,4.01948052 C61.0441408,3.73196935 60.9888327,3.44657952 60.8766234,3.18181818 C60.7427398,2.9083056 60.5109749,2.69508191 60.2272727,2.58441558 C59.9404858,2.44413108 59.6402602,2.33317814 59.3311688,2.25324675 C59.0407654,2.16436509 58.7430682,2.10134889 58.4415584,2.06493506 L58.4415584,1.0974026 L66.7792208,1.0974026 L66.7792208,2.08441558 C66.4405053,2.10565943 66.1039764,2.15342481 65.7727273,2.22727273 C65.4697941,2.28248053 65.1705312,2.35621196 64.8766234,2.44805195 C64.5874037,2.53508848 64.3503748,2.74367393 64.2272727,3.01948052 C64.1099883,3.29221625 64.0502999,3.58623693 64.0519481,3.88311688 L64.0519481,17.1428571 C64.0424263,17.6207481 64.0728351,18.0985995 64.1428571,18.5714286 C64.1863844,18.8749476 64.3359001,19.1532767 64.5649351,19.3571429 C64.8484546,19.5495602 65.1777109,19.6637919 65.5194805,19.6883117 C66.1084632,19.7474755 66.7003055,19.7734906 67.2922078,19.7662338 C67.6341991,19.7662338 67.991342,19.7662338 68.3636364,19.7662338 C68.7182747,19.7497581 69.071672,19.7129007 69.4220779,19.6558442 C69.7267503,19.6059546 70.0265596,19.529916 70.3181818,19.4285714 C70.5451456,19.3571173 70.7505518,19.2298547 70.9155844,19.0584416 C71.4086629,18.4512883 71.8434821,17.7990595 72.2142857,17.1103896 C72.6243708,16.4381541 72.9762988,15.7321257 73.2662338,15 L74.2597403,15 L74.2727273,14.9675325 Z" id="Shape"></path>
                                <path d="M84.7597403,20.8441558 L75.8701299,20.8441558 L75.8701299,19.8571429 L76.9545455,19.7727273 C77.2958612,19.7595142 77.6340935,19.7027784 77.961039,19.6038961 C78.2223697,19.508762 78.4487581,19.3367068 78.6103896,19.1103896 C78.7632014,18.8468863 78.8354423,18.5443774 78.8181818,18.2402597 L78.8181818,3.95454545 C78.8278766,3.67424686 78.7769322,3.39515982 78.6688312,3.13636364 C78.5064741,2.86833652 78.2491388,2.6712779 77.9480519,2.58441558 C77.6093814,2.46161858 77.2621203,2.36395139 76.9090909,2.29220779 C76.5680376,2.20322398 76.2207183,2.14027237 75.8701299,2.1038961 L75.8701299,1.0974026 L84.7597403,1.0974026 L84.7597403,2.08441558 C84.4138696,2.09911878 84.0691384,2.13380871 83.7272727,2.18831169 C83.3735963,2.23782763 83.0241315,2.31379825 82.6818182,2.41558442 C82.3791935,2.48876545 82.1218981,2.68704811 81.974026,2.96103896 C81.8594205,3.22488783 81.8061365,3.5112895 81.8181818,3.7987013 L81.8181818,18.0844156 C81.8121015,18.3701063 81.8815401,18.6523403 82.0194805,18.9025974 C82.1803688,19.1616366 82.4223524,19.3602458 82.7077922,19.4675325 C83.0193039,19.5737114 83.3383943,19.6561974 83.6623377,19.7142857 C84.0299645,19.7942825 84.4034916,19.8442309 84.7792208,19.8636364 L84.7792208,20.8506494 L84.7792208,20.8506494 L84.7597403,20.8441558 Z" id="Shape"></path>
                                <path d="M107.214286,20.8441558 L99.0064935,20.8441558 L99.0064935,19.8571429 C99.6121051,19.8278647 100.212886,19.7342648 100.798701,19.5779221 C101.274892,19.4393939 101.512987,19.2683983 101.512987,19.0649351 C101.520221,18.9654993 101.520221,18.8656695 101.512987,18.7662338 C101.496659,18.6573866 101.468348,18.550678 101.428571,18.4480519 L99.7662338,13.9805195 L92.8571429,13.9805195 C92.5974026,14.6298701 92.3809524,15.1948052 92.2077922,15.6753247 C92.034632,16.1558442 91.8874459,16.6017316 91.7662338,17.012987 C91.6647723,17.3329899 91.5802396,17.6581158 91.512987,17.987013 C91.4720103,18.1837174 91.4481119,18.3835954 91.4415584,18.5844156 C91.5095321,19.0350353 91.8665978,19.3868112 92.3181818,19.4480519 C92.9471794,19.6603532 93.603004,19.7827738 94.2662338,19.8116883 L94.2662338,20.7987013 L86.8766234,20.7987013 L86.8766234,19.8571429 C87.1790925,19.8264213 87.4787033,19.772144 87.7727273,19.6948052 C88.0890466,19.6258803 88.3918182,19.5052105 88.6688312,19.3376623 C89.0006812,19.1180639 89.2927308,18.8435811 89.5324675,18.525974 C89.7782263,18.1735904 89.9789199,17.7918362 90.1298701,17.3896104 C91.1255411,14.9134199 92.2207792,12.1255411 93.4155844,9.02597403 C94.6103896,5.92640693 95.6774892,3.17965368 96.6168831,0.785714286 L97.7337662,0.785714286 L104.305195,17.8116883 C104.418622,18.1258919 104.578397,18.4213671 104.779221,18.6883117 C104.991525,18.9411394 105.241148,19.1601074 105.519481,19.3376623 C105.779374,19.4855207 106.059347,19.5948852 106.350649,19.6623377 C106.632637,19.7416385 106.922043,19.7916861 107.214286,19.8116883 L107.214286,20.7987013 L107.214286,20.8441558 Z M99.2727273,12.7792208 L96.2857143,5.11688312 L93.3376623,12.7792208 L99.2727273,12.7792208 Z" id="Shape"></path>
                                <path d="M133.409091,20.8441558 L124.675325,20.8441558 L124.675325,19.8571429 C125.083896,19.8504179 125.491635,19.8178855 125.896104,19.7597403 C126.248978,19.7412886 126.596041,19.6622112 126.922078,19.525974 C127.184297,19.3831783 127.407314,19.1780026 127.571429,18.9285714 C127.714349,18.6661432 127.783887,18.3700423 127.772727,18.0714286 L127.772727,3.69480519 L127.558442,3.69480519 L120.811688,20.525974 L120.12987,20.525974 L113.701299,3.33766234 L113.506494,3.33766234 L113.506494,15.1363636 C113.481732,16.0074226 113.5536,16.8785424 113.720779,17.7337662 C113.798922,18.2230155 114.025616,18.6764038 114.37013,19.0324675 C114.756116,19.3128753 115.199789,19.5036547 115.668831,19.5909091 C116.078032,19.7188814 116.497253,19.8122828 116.922078,19.8701299 L116.922078,20.8571429 L108.948052,20.8571429 L108.948052,19.8571429 C109.384971,19.8158862 109.818773,19.7464779 110.246753,19.6493506 C110.632495,19.5797159 110.996943,19.4219365 111.311688,19.1883117 C111.658484,18.8760832 111.887689,18.4543468 111.961039,17.9935065 C112.108422,17.1053889 112.169313,16.2050696 112.142857,15.3051948 L112.142857,5.18831169 C112.158633,4.70145312 112.088288,4.21563491 111.935065,3.75324675 C111.81176,3.41041134 111.606701,3.10282222 111.337662,2.85714286 C111.040264,2.5972599 110.690318,2.40456822 110.311688,2.29220779 C109.913954,2.17795561 109.504269,2.11040121 109.090909,2.09090909 L109.090909,1.0974026 L115.824675,1.0974026 L121.461039,15.9285714 L126.285714,3.52597403 C126.46406,3.05936692 126.61369,2.58228516 126.733766,2.0974026 C126.830121,1.77210483 126.901753,1.43999026 126.948052,1.1038961 L133.38961,1.1038961 L133.38961,2.08441558 C133.055964,2.10225375 132.72398,2.14348052 132.396104,2.20779221 C132.092928,2.25610173 131.793497,2.32553486 131.5,2.41558442 C131.212064,2.49737779 130.974622,2.70157782 130.850649,2.97402597 C130.736983,3.243105 130.679529,3.53258219 130.681818,3.82467532 L130.681818,18.0649351 C130.675301,18.344847 130.733058,18.6225259 130.850649,18.8766234 C130.998284,19.1395693 131.225684,19.3487772 131.5,19.474026 C131.784639,19.6032958 132.086456,19.6907789 132.396104,19.7337662 C132.730413,19.8000823 133.068864,19.8434735 133.409091,19.8636364 L133.409091,20.8506494 L133.409091,20.8506494 L133.409091,20.8441558 Z" id="Shape"></path>
                                <path d="M148.123377,11.7857143 C148.531732,12.2346313 148.847306,12.7598525 149.051948,13.3311688 C149.264363,13.95813 149.365454,14.6174192 149.350649,15.2792208 C149.38613,16.9369656 148.670069,18.5218475 147.402597,19.5909091 C146.074234,20.7432553 144.361727,21.3550305 142.603896,21.3051948 C141.707332,21.303181 140.816254,21.16525 139.961039,20.8961039 C139.165292,20.6544388 138.402059,20.3164358 137.688312,19.8896104 L137.090909,20.9025974 L135.974026,20.9025974 L135.779221,14.0909091 L136.902597,14.0909091 C137.114179,14.8649116 137.387791,15.6206044 137.720779,16.3506494 C138.039981,17.0340613 138.455458,17.6682109 138.954545,18.2337662 C139.42878,18.7709782 140.001975,19.2118977 140.642857,19.5324675 C141.342994,19.8694103 142.112797,20.0362751 142.88961,20.0194805 C143.460467,20.0302164 144.029047,19.9446002 144.571429,19.7662338 C145.432453,19.4969898 146.111446,18.8300782 146.396104,17.974026 C146.54676,17.5131319 146.61919,17.030267 146.61039,16.5454545 C146.616813,15.7615329 146.390855,14.9932783 145.961039,14.3376623 C145.477306,13.6252714 144.78237,13.0824941 143.974026,12.7857143 C143.376623,12.547619 142.686147,12.2813853 141.902597,11.987013 C141.119048,11.6926407 140.445887,11.4177489 139.883117,11.1623377 C138.867451,10.7414323 137.97417,10.0714714 137.285714,9.21428571 C136.633584,8.2854852 136.309173,7.16603604 136.363636,6.03246753 C136.360932,5.30719553 136.520685,4.59052417 136.831169,3.93506494 C137.143517,3.27407552 137.585104,2.68234892 138.12987,2.19480519 C138.687006,1.6997977 139.33248,1.31427571 140.032468,1.05844156 C140.763604,0.785853004 141.537886,0.647274162 142.318182,0.649350649 C143.150752,0.635431337 143.97866,0.776351769 144.75974,1.06493506 C145.438084,1.32806275 146.090284,1.65416293 146.707792,2.03896104 L147.279221,1.09090909 L148.396104,1.09090909 L148.506494,7.64935065 L147.402597,7.64935065 C147.21053,6.91933553 146.980785,6.19975712 146.714286,5.49350649 C146.470793,4.83140366 146.136423,4.20637188 145.720779,3.63636364 C145.333717,3.10262538 144.835177,2.65947861 144.25974,2.33766234 C143.60684,1.99903087 142.877973,1.83358268 142.142857,1.85714286 C141.310493,1.84132352 140.503856,2.1458466 139.88961,2.70779221 C139.285931,3.23024634 138.945696,3.99398973 138.961039,4.79220779 C138.932024,5.54519979 139.141059,6.28818422 139.558442,6.91558442 C140.012444,7.51720948 140.614122,7.99139378 141.305195,8.29220779 C141.957258,8.60701123 142.624771,8.88875383 143.305195,9.13636364 C143.958874,9.37445887 144.593074,9.62770563 145.207792,9.8961039 C145.753086,10.1415936 146.282284,10.4213745 146.792208,10.7337662 C147.283174,11.0200977 147.731309,11.3742337 148.123377,11.7857143 L148.123377,11.7857143 Z" id="Shape"></path>
                                <path d="M29.7597403,39.1818182 C30.165652,39.625177 30.4810786,40.1435353 30.6883117,40.7077922 C30.9007268,41.3347534 31.0018178,41.9940426 30.987013,42.6558442 C31.0224937,44.3135889 30.3064326,45.8984709 29.038961,46.9675325 C27.7077108,48.1128438 25.9955136,48.7175576 24.2402597,48.6623377 C23.343703,48.6602238 22.4526402,48.5222952 21.5974026,48.2532468 C20.7981453,48.0185548 20.0305543,47.6870951 19.3116883,47.2662338 L18.7207792,48.2662338 L17.6038961,48.2662338 L17.4090909,41.5064935 L18.5324675,41.5064935 C18.7440487,42.2804961 19.0176616,43.0361888 19.3506494,43.7662338 C19.6698507,44.4496457 20.0853279,45.0837953 20.5844156,45.6493506 C21.0585387,46.1866816 21.6317587,46.6276201 22.2727273,46.9480519 C22.9727836,47.2852282 23.7426431,47.4521053 24.5194805,47.4350649 C25.0903373,47.4458009 25.6589168,47.3601846 26.2012987,47.1818182 C26.6413638,47.0326821 27.0397336,46.7811973 27.3636364,46.4480519 C27.6571176,46.1386688 27.8788237,45.7684195 28.012987,45.3636364 C28.163524,44.9027141 28.2359507,44.4198694 28.2272727,43.9350649 C28.2340857,43.1510888 28.0080959,42.3827234 27.5779221,41.7272727 C27.0945131,41.0145792 26.3994681,40.4717173 25.5909091,40.1753247 C24.9805195,39.9545455 24.2857143,39.6991342 23.5064935,39.4090909 C22.7272727,39.1190476 22.0562771,38.8463203 21.4935065,38.5909091 C20.4777012,38.1702485 19.5843635,37.5002453 18.8961039,36.6428571 C18.241675,35.7148714 17.9149587,34.5953541 17.9675325,33.461039 C17.9639848,32.738475 18.1214804,32.0241989 18.4285714,31.3701299 C18.7406169,30.7089583 19.1822461,30.1171751 19.7272727,29.6298701 C20.284409,29.1348626 20.9298829,28.7493406 21.6298701,28.4935065 C22.3650934,28.2193771 23.1439142,28.0807734 23.9285714,28.0844156 C24.7611303,28.0706472 25.5890102,28.2115629 26.3701299,28.5 C27.0485196,28.7630229 27.7007296,29.0891279 28.3181818,29.474026 L28.8896104,28.525974 L30.0064935,28.525974 L30.1168831,35.0844156 L29.0194805,35.0844156 C28.8280027,34.3542291 28.598248,33.6346202 28.3311688,32.9285714 C28.0878377,32.2643768 27.7534775,31.6371783 27.3376623,31.0649351 C26.9506005,30.5311968 26.4520603,30.08805 25.8766234,29.7662338 C25.2238233,29.4273274 24.4948842,29.2618627 23.7597403,29.2857143 C22.9282626,29.2681269 22.1217386,29.5702829 21.5064935,30.1298701 C20.9039155,30.6481671 20.5615761,31.4065441 20.5714286,32.2012987 C20.5424137,32.9542907 20.7514491,33.6972751 21.1688312,34.3246753 C21.6202148,34.9278033 22.2196362,35.4042091 22.9090909,35.7077922 C23.5611538,36.0225956 24.228667,36.3043382 24.9090909,36.5519481 C25.5627706,36.7900433 26.1969697,37.04329 26.8116883,37.3116883 C27.3630737,37.5502465 27.8987802,37.8235219 28.4155844,38.1298701 C28.9110333,38.4153311 29.3635753,38.7694944 29.7597403,39.1818182 L29.7597403,39.1818182 Z" id="Shape"></path>
                                <path d="M49.0909091,30.8636364 C49.9822423,31.7987925 50.6776811,32.9026636 51.1363636,34.1103896 C51.6431702,35.474899 51.8941161,36.9211396 51.8766234,38.3766234 C51.8957783,39.8355058 51.6402504,41.2849657 51.1233766,42.6493506 C50.6562122,43.8634256 49.9445204,44.9685371 49.0324675,45.8961039 C48.1803038,46.7790811 47.1573898,47.4794348 46.025974,47.9545455 C43.6352229,48.9378764 40.9500105,48.9215031 38.5714286,47.9090909 C37.4417313,47.4209816 36.4265204,46.7021504 35.5909091,45.7987013 C34.7310608,44.8427726 34.068981,43.7260646 33.6428571,42.512987 C33.1598818,41.1923596 32.9179482,39.795743 32.9285714,38.3896104 C32.8939625,36.9308714 33.1363409,35.4788042 33.6428571,34.1103896 C34.1165885,32.9042206 34.8200921,31.8015505 35.7142857,30.8636364 C36.5713055,29.9634557 37.6062162,29.2514017 38.7532468,28.7727273 C41.0979458,27.800127 43.733223,27.800127 46.0779221,28.7727273 C47.2172203,29.2516897 48.2435802,29.9639481 49.0909091,30.8636364 L49.0909091,30.8636364 Z M47.0194805,44.8571429 C47.5566347,43.9709746 47.9407895,43.0007093 48.1558442,41.987013 C48.6438005,39.5750266 48.6305388,37.0884627 48.1168831,34.6818182 C47.8960693,33.6576448 47.5030432,32.6783732 46.9545455,31.7857143 C46.4652841,31.0213453 45.7965046,30.388234 45.0064935,29.9415584 C44.1983266,29.4955585 43.2864698,29.2715151 42.3636364,29.2922078 C41.3628951,29.2622902 40.3756409,29.5288715 39.525974,30.0584416 C38.7533636,30.5824306 38.1149365,31.2809188 37.6623377,32.0974026 C37.1679227,32.9938333 36.8173327,33.9623383 36.6233766,34.9675325 C36.393198,36.1023107 36.2800515,37.2577106 36.2857143,38.4155844 C36.2742407,39.6308848 36.3961829,40.8437738 36.6493506,42.0324675 C36.8654672,43.0468583 37.2518879,44.0173012 37.7922078,44.9025974 C38.2591951,45.6857136 38.9100095,46.3432145 39.6883117,46.8181818 C40.5168069,47.2940556 41.4604938,47.5322242 42.4155844,47.5064935 C43.357862,47.5208325 44.2865694,47.2808042 45.1038961,46.8116883 C45.8985067,46.334002 46.5578883,45.6612093 47.0194805,44.8571429 Z" id="Shape"></path>
                                <path d="M73.0454545,29.4935065 C72.6409582,29.5280999 72.2407974,29.6020426 71.8506494,29.7142857 C71.4462529,29.8023001 71.0568675,29.9488665 70.6948052,30.1493506 C70.3100031,30.4918419 70.0765247,30.9728072 70.0454545,31.487013 C69.916373,32.3160648 69.8577219,33.1545577 69.8701299,33.9935065 L69.8701299,48.4415584 L68.6363636,48.4415584 L56.6688312,32.2857143 L56.6688312,42.4675325 C56.6449842,43.3493246 56.7168328,44.2311027 56.8831169,45.0974026 C56.9628574,45.5861368 57.1893245,46.0390709 57.5324675,46.3961039 C57.9179449,46.6799979 58.3614338,46.875133 58.8311688,46.9675325 C59.2557352,47.0958482 59.6900828,47.1892329 60.1298701,47.2467532 L60.1298701,48.2337662 L52.0909091,48.2337662 L52.0909091,47.2597403 C52.530777,47.2059255 52.9652526,47.1146857 53.3896104,46.987013 C53.7854198,46.9081579 54.1637672,46.7585787 54.5064935,46.5454545 C54.8532894,46.2332261 55.082494,45.8114897 55.1558442,45.3506494 C55.3049851,44.4474492 55.3658782,43.531879 55.3376623,42.6168831 L55.3376623,32.9090909 C55.3383185,32.4667969 55.2636584,32.0276202 55.1168831,31.6103896 C55.0013532,31.2375301 54.7962411,30.8986492 54.5194805,30.6233766 C54.1201522,30.2789952 53.6598278,30.0124916 53.1623377,29.8376623 C52.7215431,29.6507357 52.2554099,29.5303727 51.7792208,29.4805195 L51.7792208,28.5064935 L57.4025974,28.5064935 L68.5064935,43.5649351 L68.5064935,34.1688312 C68.5309867,33.2802703 68.4569418,32.3917313 68.2857143,31.5194805 C68.2172973,31.0458815 67.988014,30.6102431 67.6363636,30.2857143 C67.2317123,30.0504057 66.793889,29.8774655 66.3376623,29.7727273 C65.8999697,29.6353429 65.4497039,29.5418095 64.9935065,29.4935065 L64.9935065,28.5064935 L73.0519481,28.5064935 L73.0519481,29.4935065 L73.0519481,29.4935065 L73.0454545,29.4935065 Z" id="Shape"></path>
                                <path d="M89.0584416,30.8636364 C89.9496363,31.7989003 90.6450565,32.9027419 91.1038961,34.1103896 C91.6105589,35.4749379 91.8615001,36.9211515 91.8441558,38.3766234 C91.8633108,39.8355058 91.6077829,41.2849657 91.0909091,42.6493506 C90.6237447,43.8634256 89.9120529,44.9685371 89,45.8961039 C88.1477188,46.7789422 87.1248352,47.479275 85.9935065,47.9545455 C83.618283,48.9433629 80.946652,48.9433629 78.5714286,47.9545455 C77.435779,47.4559628 76.4179817,46.7235913 75.5844156,45.8051948 C74.7245673,44.8492661 74.0624875,43.7325581 73.6363636,42.5194805 C73.1533883,41.1988532 72.9114547,39.8022365 72.9220779,38.3961039 C72.8970168,36.9331073 73.1504374,35.4786933 73.6688312,34.1103896 C74.1425626,32.9042206 74.8460661,31.8015505 75.7402597,30.8636364 C76.5972795,29.9634557 77.6321903,29.2514017 78.7792208,28.7727273 C81.1239198,27.800127 83.759197,27.800127 86.1038961,28.7727273 C87.2221749,29.2588865 88.2280233,29.9707176 89.0584416,30.8636364 Z M87.012987,44.8571429 C87.5502524,43.9710298 87.9344148,43.0007452 88.1493506,41.987013 C88.637307,39.5750266 88.6240453,37.0884627 88.1103896,34.6818182 C87.8895758,33.6576448 87.4965497,32.6783732 86.9480519,31.7857143 C86.4587906,31.0213453 85.7900111,30.388234 85,29.9415584 C84.1918331,29.4955585 83.2799763,29.2715151 82.3571429,29.2922078 C81.3564016,29.2622902 80.3691474,29.5288715 79.5194805,30.0584416 C78.7317324,30.5793617 78.0795074,31.2805592 77.6168831,32.1038961 C77.1224682,33.0003268 76.7718781,33.9688318 76.5779221,34.974026 C76.3477435,36.1088042 76.234597,37.2642041 76.2402597,38.4220779 C76.2356616,39.6359247 76.3641344,40.8466182 76.6233766,42.0324675 C76.8397333,43.0467854 77.2261383,44.017189 77.7662338,44.9025974 C78.2334288,45.6855527 78.8841985,46.3430084 79.6623377,46.8181818 C80.4908329,47.2940556 81.4345198,47.5322242 82.3896104,47.5064935 C83.3274964,47.518496 84.2514134,47.2785467 85.0649351,46.8116883 C85.8714432,46.3383827 86.5423679,45.6652216 87.012987,44.8571429 Z" id="Shape"></path>
                                <path d="M116.435065,48.2597403 L107.714286,48.2597403 L107.714286,47.2662338 C108.122857,47.2595088 108.530596,47.2269764 108.935065,47.1688312 C109.28574,47.1496425 109.630544,47.0705791 109.954545,46.9350649 C110.216921,46.7924886 110.439987,46.5872682 110.603896,46.3376623 C110.74712,46.07535 110.816678,45.7791645 110.805195,45.4805195 L110.805195,31.1168831 L110.597403,31.1168831 L103.857143,47.9350649 L103.162338,47.9350649 L96.7532468,30.7597403 L96.5714286,30.7597403 L96.5714286,42.5519481 C96.5533984,43.4237179 96.6317966,44.2948094 96.8051948,45.1493506 C96.8833374,45.6386 97.1100316,46.0919882 97.4545455,46.4480519 C97.8405315,46.7284597 98.2842047,46.9192391 98.7532468,47.0064935 C99.1624638,47.1344069 99.5816792,47.2278072 100.006494,47.2857143 L100.006494,48.2662338 L92.0194805,48.2662338 L92.0194805,47.2727273 C92.4563616,47.2311694 92.8901441,47.1617642 93.3181818,47.0649351 C93.703855,46.9950753 94.0682538,46.8373173 94.3831169,46.6038961 C94.7294954,46.2913386 94.9586143,45.8697599 95.0324675,45.4090909 C95.1795669,44.5209403 95.2404562,43.6206485 95.2142857,42.7207792 L95.2142857,32.6103896 C95.2297893,32.1235462 95.1594515,31.6377754 95.0064935,31.1753247 C94.883189,30.8324893 94.6781295,30.5249001 94.4090909,30.2792208 C94.1017296,30.0173657 93.7402978,29.8266716 93.3506494,29.7207792 C92.9468344,29.6030047 92.5305401,29.533259 92.1103896,29.512987 L92.1103896,28.5064935 L98.8311688,28.5064935 L104.487013,43.3246753 L109.324675,30.9285714 C109.502945,30.4619378 109.652573,29.9848607 109.772727,29.5 C109.864863,29.1744002 109.932155,28.8422777 109.974026,28.5064935 L116.415584,28.5064935 L116.415584,29.4935065 C116.081938,29.5113447 115.749954,29.5525714 115.422078,29.6168831 C115.11889,29.6651301 114.819455,29.7345643 114.525974,29.8246753 C114.238038,29.9064687 114.000596,30.1106687 113.876623,30.3831169 C113.76278,30.6521418 113.70532,30.9416558 113.707792,31.2337662 L113.707792,45.4675325 C113.700038,45.7496463 113.75783,46.0297134 113.876623,46.2857143 C114.024258,46.5486602 114.251658,46.7578682 114.525974,46.8831169 C114.810421,47.0129052 115.112315,47.1004106 115.422078,47.1428571 C115.756381,47.2092133 116.094835,47.2526048 116.435065,47.2727273 L116.435065,48.2662338 L116.435065,48.2662338 L116.435065,48.2597403 Z" id="Shape"></path>
                                <path d="M138.045455,48.2597403 L129.87013,48.2597403 L129.87013,47.2662338 C130.475732,47.2368579 131.076502,47.1432596 131.662338,46.987013 C132.138528,46.8484848 132.376623,46.6774892 132.376623,46.474026 C132.383614,46.3745816 132.383614,46.2747691 132.376623,46.1753247 C132.360295,46.0664775 132.331985,45.9597689 132.292208,45.8571429 L130.655844,41.4285714 L123.681818,41.4285714 C123.422078,42.0779221 123.205628,42.6428571 123.032468,43.1233766 C122.859307,43.6038961 122.712121,44.0497835 122.590909,44.461039 C122.489448,44.7810419 122.404915,45.1061677 122.337662,45.4350649 C122.296654,45.6317641 122.272755,45.8316449 122.266234,46.0324675 C122.334207,46.4830873 122.691273,46.8348631 123.142857,46.8961039 C123.771899,47.1082371 124.427699,47.2306532 125.090909,47.2597403 L125.090909,48.2467532 L117.688312,48.2467532 L117.688312,47.2597403 C117.990781,47.2290187 118.290392,47.1747414 118.584416,47.0974026 C118.9007,47.028364 119.203454,46.9077014 119.480519,46.7402597 C119.810062,46.5281692 120.101941,46.2626247 120.344156,45.9545455 C120.58951,45.601916 120.790177,45.220214 120.941558,44.8181818 C121.937229,42.3419913 123.032468,39.5541126 124.227273,36.4545455 C125.422078,33.3549784 126.489177,30.6038961 127.428571,28.2012987 L128.571429,28.2012987 L135.142857,45.2272727 C135.256105,45.5415564 135.415894,45.8370574 135.616883,46.1038961 C135.829187,46.3567238 136.07881,46.5756918 136.357143,46.7532468 C136.616711,46.9032807 136.896688,47.0148338 137.188312,47.0844156 C137.47034,47.1635377 137.759727,47.2135821 138.051948,47.2337662 L138.051948,48.2207792 L138.045455,48.2597403 Z M130.103896,40.1948052 L127.116883,32.5324675 L124.168831,40.1948052 L130.103896,40.1948052 L130.103896,40.1948052 Z" id="Shape"></path>
                                <rect id="Rectangle-path" x="27.5064935" y="55.7142857" width="94.3376623" height="1"></rect>
                                <path d="M44.8701299,64.1493506 C44.7727273,64.0844156 44.6818182,64.0194805 44.5714286,63.9545455 C44.2318865,63.7255884 43.831602,63.6034677 43.4220779,63.6038961 C42.7504508,63.6063526 42.1157943,63.9117513 41.6948052,64.4350649 C41.4193009,64.8262759 41.2739044,65.294271 41.2792208,65.7727273 C41.2823042,66.103212 41.3507162,66.4298242 41.4805195,66.7337662 C41.8468056,67.4728459 42.6037494,67.9371047 43.4285714,67.9285714 C43.9469755,67.9100328 44.4446883,67.7205367 44.8441558,67.3896104 L44.8441558,68.3571429 C44.4038759,68.5975648 43.910731,68.724756 43.4090909,68.7272727 C42.6976324,68.7225775 42.0095759,68.4725837 41.461039,68.0194805 C40.8114109,67.4561795 40.4471051,66.6323245 40.4675325,65.7727273 C40.4611069,65.0581722 40.7150094,64.3657111 41.1818182,63.8246753 C41.7713692,63.2000649 42.5892147,62.8415252 43.4480519,62.8311688 C43.9489784,62.8536526 44.4398137,62.9796779 44.8896104,63.2012987 L44.8896104,64.1883117 L44.8701299,64.1493506 Z" id="Shape"></path>
                                <path d="M53.1363636,68.6493506 L52.2402597,68.6493506 L51.6493506,67.2662338 L49.1753247,67.2662338 L48.525974,68.6493506 L47.6168831,68.6493506 L50.4805195,62.5649351 L53.1363636,68.6493506 Z M49.5194805,66.5194805 L51.3441558,66.5194805 L50.461039,64.5 L49.5194805,66.5194805 Z" id="Shape"></path>
                                <polygon id="Shape" points="57.0974026 62.9025974 57.0974026 67.8766234 58.8441558 67.8766234 58.8441558 68.6493506 56.2467532 68.6493506 56.2467532 62.9025974 57.0779221 62.9025974"></polygon>
                                <polygon id="Shape" points="63.8961039 62.8896104 63.8961039 68.6233766 63.0519481 68.6233766 63.0519481 62.8896104 63.8961039 62.8896104"></polygon>
                                <polygon id="Shape" points="71.1103896 62.8961039 71.1103896 63.7012987 69.1233766 63.7012987 69.1233766 65.1103896 71.0714286 65.1103896 71.0714286 65.8766234 69.0844156 65.8766234 69.0844156 68.6363636 68.2662338 68.6363636 68.2662338 62.8961039 71.0974026 62.8961039"></polygon>
                                <path d="M74.9350649,63.7207792 C75.5026334,63.1275199 76.2893727,62.7940364 77.1103896,62.7987013 C77.7990643,62.798089 78.4683865,63.0265266 79.012987,63.4480519 C79.703537,64.0120933 80.1060061,64.8551353 80.1103896,65.7467532 C80.1085382,66.1309978 80.0290234,66.510902 79.8766234,66.8636364 C79.4116485,67.978005 78.3178223,68.6995195 77.1103896,68.6883117 C76.4007023,68.6862268 75.7131612,68.4410038 75.1623377,67.9935065 C74.4653081,67.4183751 74.0743639,66.5525418 74.1038961,65.6493506 C74.1412726,64.927751 74.4361779,64.2434787 74.9350649,63.7207792 L74.9350649,63.7207792 Z M75.4090909,67.0909091 C76.1587314,68.0146331 77.5054665,68.1783088 78.4545455,67.461039 C78.9745456,67.0573073 79.2808431,66.4375336 79.2857143,65.7792208 C79.2834981,65.4820771 79.2216714,65.1883999 79.1038961,64.9155844 C78.770554,64.1499651 78.0261666,63.6447072 77.1915685,63.6175793 C76.3569703,63.5904514 75.5813429,64.0463026 75.1989854,64.7886588 C74.8166279,65.531015 74.8958854,66.4271826 75.4025974,67.0909091 L75.4090909,67.0909091 Z" id="Shape"></path>
                                <path d="M86.1688312,68.6363636 L84.4155844,66.1883117 L84.0649351,66.1883117 L84.0649351,68.6493506 L83.2597403,68.6493506 L83.2597403,62.8961039 L84.9415584,62.8961039 C85.3270668,62.8827817 85.7075188,62.9869531 86.0324675,63.1948052 C86.4241751,63.510122 86.6453297,63.9908928 86.6298701,64.4935065 C86.6488787,65.0581086 86.379849,65.5937222 85.9155844,65.9155844 C85.7539758,66.0093523 85.5786984,66.0772722 85.3961039,66.1168831 C85.6623377,66.5 85.9220779,66.8831169 86.2012987,67.2597403 C86.4805195,67.6363636 86.6168831,67.8181818 86.8506494,68.1103896 C86.974026,68.2792208 87.0844156,68.461039 87.2012987,68.6298701 L86.1688312,68.6298701 L86.1688312,68.6298701 L86.1688312,68.6363636 Z M84.0779221,63.6818182 L84.0779221,65.474026 L84.7272727,65.474026 C85.0758488,65.5059077 85.4157221,65.353211 85.6233766,65.0714286 C85.7354525,64.8927632 85.7919528,64.684842 85.7857143,64.474026 C85.7967207,64.226287 85.6938737,63.987108 85.5064935,63.8246753 C85.3121309,63.7039477 85.0856948,63.6450743 84.8571429,63.6558442 L84.0584416,63.6558442 L84.0584416,63.6558442 L84.0779221,63.6818182 Z" id="Shape"></path>
                                <path d="M94.512987,62.9155844 L95.3506494,62.9155844 L95.3506494,68.8701299 C94.7012987,68.2207792 94.0519481,67.5714286 93.4025974,66.8831169 C93.012987,66.4935065 92.6298701,66.0974026 92.2467532,65.6883117 C91.8636364,65.2792208 91.461039,64.8506494 91.0844156,64.3896104 C91.0844156,64.6688312 91.1233766,64.9415584 91.1298701,65.2077922 C91.1363636,65.474026 91.1298701,65.6948052 91.1298701,65.9415584 L91.1298701,68.5974026 L90.2597403,68.5974026 L90.2597403,62.4935065 C91.0649351,63.2922078 91.8701299,64.0909091 92.6493506,64.8831169 C93.2987013,65.5324675 93.9155844,66.1818182 94.5324675,66.8311688 C94.5324675,66.6493506 94.4935065,66.461039 94.4935065,66.2857143 C94.4935065,66.1103896 94.4935065,65.9675325 94.4935065,65.8051948 L94.4935065,62.9025974 L94.512987,62.9155844 Z" id="Shape"></path>
                                <polygon id="Shape" points="100.285714 62.8896104 100.285714 68.6233766 99.4350649 68.6233766 99.4350649 62.8896104"></polygon>
                                <path d="M108.896104,68.6493506 L108,68.6493506 L107.415584,67.2662338 L104.941558,67.2662338 L104.292208,68.6493506 L103.396104,68.6493506 L106.279221,62.5714286 L108.896104,68.6493506 Z M105.279221,66.5194805 L107.103896,66.5194805 L106.220779,64.5 L105.279221,66.5194805 Z" id="Shape"></path>
                            </g>
                        </g>
                    </g>
                </g>
            </g>
        </g>
    </g>
</svg>