<?xml version="1.0" encoding="UTF-8"?>
<svg width="13px" height="21px" viewBox="0 0 13 21" version="1.1" xmlns="http://www.w3.org/2000/svg" xmlns:xlink="http://www.w3.org/1999/xlink">
    <g stroke="none" stroke-width="1" fill="none" fill-rule="evenodd">
        <path d="M1.30722197,0.692778028 L0.725105054,1.27489495 L0.725105054,1.27489495 C0.334580763,1.66541924 0.334580763,2.29858422 0.725105054,2.68910851 C0.731028852,2.69503231 0.737026855,2.70088143 0.743097644,2.70665449 L8.2327034,9.82895342 L8.2327034,9.82895342 C8.63291807,10.2095407 8.64882923,10.8425057 8.26824197,11.2427204 C8.25511352,11.2565259 8.24159323,11.2699534 8.22769767,11.2829865 L0.753115214,18.2936298 L0.753115214,18.2936298 C0.350289601,18.6714525 0.330020711,19.304293 0.707843381,19.7071186 C0.715144683,19.714903 0.722570138,19.7225701 0.730116894,19.7301169 L1.31107579,20.3110758 L1.31107579,20.3110758 C1.69442652,20.6944265 2.31342835,20.7024887 2.70663322,20.3292522 L12.2401682,11.2798648 L12.2401682,11.2798648 C12.6407311,10.899644 12.6572216,10.2666938 12.2770008,9.866131 C12.2663251,9.85488423 12.2553894,9.8438873 12.2442023,9.83314913 L2.70681348,0.678452277 L2.70681348,0.678452277 C2.31413248,0.301527771 1.69210537,0.307894633 1.30722197,0.692778028 Z" fill="#FFFFFF"></path>
    </g>
</svg>